<?xml version="1.0" encoding="UTF-8" standalone="no"?>
<svg
   version="1.2"
   width="84.099777mm"
   height="18.09664mm"
   viewBox="0 0 47.857419 10.297987"
   id="svg3037"
   sodipodi:docname="hold_the_line.svg"
   inkscape:version="1.1.2 (0a00cf5339, 2022-02-04)"
   xmlns:inkscape="http://www.inkscape.org/namespaces/inkscape"
   xmlns:sodipodi="http://sodipodi.sourceforge.net/DTD/sodipodi-0.dtd"
   xmlns:xlink="http://www.w3.org/1999/xlink"
   xmlns="http://www.w3.org/2000/svg"
   xmlns:svg="http://www.w3.org/2000/svg">
  <defs
     id="defs3041" />
  <sodipodi:namedview
     id="namedview3039"
     pagecolor="#ffffff"
     bordercolor="#666666"
     borderopacity="1.0"
     inkscape:pageshadow="2"
     inkscape:pageopacity="0.0"
     inkscape:pagecheckerboard="0"
     inkscape:document-units="mm"
     showgrid="false"
     inkscape:zoom="0.64052329"
     inkscape:cx="381.71914"
     inkscape:cy="36.688752"
     inkscape:window-width="1128"
     inkscape:window-height="688"
     inkscape:window-x="0"
     inkscape:window-y="0"
     inkscape:window-maximized="1"
     inkscape:current-layer="svg3037" />
  <style
     type="text/css"
     id="style2697"><![CDATA[
tspan { white-space: pre; }
]]></style>
  <!-- Page: 1/1 -->
  <g
     transform="translate(11.811218,7.9646875)"
     id="g2701">
    <line
       stroke-linejoin="round"
       stroke-linecap="round"
       stroke-width="0.1"
       stroke="currentColor"
       x1="0.050000001"
       y1="0"
       x2="35.996201"
       y2="0"
       id="line2699" />
  </g>
  <g
     transform="translate(11.811218,6.9646875)"
     id="g2705">
    <line
       stroke-linejoin="round"
       stroke-linecap="round"
       stroke-width="0.1"
       stroke="currentColor"
       x1="0.050000001"
       y1="0"
       x2="35.996201"
       y2="0"
       id="line2703" />
  </g>
  <g
     transform="translate(11.811218,5.9646875)"
     id="g2709">
    <line
       stroke-linejoin="round"
       stroke-linecap="round"
       stroke-width="0.1"
       stroke="currentColor"
       x1="0.050000001"
       y1="0"
       x2="35.996201"
       y2="0"
       id="line2707" />
  </g>
  <g
     transform="translate(11.811218,4.9646875)"
     id="g2713">
    <line
       stroke-linejoin="round"
       stroke-linecap="round"
       stroke-width="0.1"
       stroke="currentColor"
       x1="0.050000001"
       y1="0"
       x2="35.996201"
       y2="0"
       id="line2711" />
  </g>
  <g
     transform="translate(11.811218,3.9646875)"
     id="g2717">
    <line
       stroke-linejoin="round"
       stroke-linecap="round"
       stroke-width="0.1"
       stroke="currentColor"
       x1="0.050000001"
       y1="0"
       x2="35.996201"
       y2="0"
       id="line2715" />
  </g>
  <g
     transform="translate(47.667418,5.9646875)"
     id="g2721">
    <rect
       x="0"
       y="-2"
       width="0.19"
       height="4"
       ry="0.0000"
       fill="currentColor"
       id="rect2719" />
  </g>
  <g
     transform="translate(40.214118,5.9646875)"
     id="g2725">
    <rect
       x="-0.064999998"
       y="-0.31389999"
       width="0.13"
       height="3.3139"
       ry="0.039999999"
       fill="currentColor"
       id="rect2723" />
  </g>
  <a
     style="color:inherit"
     xlink:href="textedit:///home/potatochup/musicforwesties/music_source/./hold_the_line.ly:27:10:11"
     id="a2733"
     transform="translate(-2.4151818,-3.8453125)">
    <g
       transform="translate(40.0601,5.2722)"
       id="g2731">
      <text
         font-family="serif"
         font-size="1.96px"
         text-anchor="start"
         fill="currentColor"
         id="text2729"><tspan
           id="tspan2727">a</tspan></text>
    </g>
  </a>
  <a
     style="color:inherit"
     xlink:href="textedit:///home/potatochup/musicforwesties/music_source/./hold_the_line.ly:27:8:9"
     id="a2739"
     transform="translate(-2.4151818,-3.8453125)">
    <g
       transform="translate(40.0601,8.31)"
       id="g2737">
      <path
         transform="scale(0.004,-0.004)"
         d="m 163,36 119,97 c 3,2 6,3 9,3 3,0 7,-1 10,-3 l 20,-16 c 3,-3 5,-8 5,-12 0,-4 -2,-9 -5,-12 L 206,0 321,-93 c 3,-3 5,-8 5,-12 0,-4 -2,-9 -5,-12 l -20,-16 c -3,-2 -7,-3 -10,-3 -3,0 -6,1 -9,3 L 163,-36 44,-133 c -3,-2 -6,-3 -9,-3 -3,0 -7,1 -10,3 l -20,16 c -3,3 -5,8 -5,12 0,4 2,9 5,12 L 120,0 5,93 c -3,3 -5,8 -5,12 0,4 2,9 5,12 l 20,16 c 3,2 7,3 10,3 3,0 6,-1 9,-3 z"
         fill="currentColor"
         id="path2735" />
    </g>
  </a>
  <g
     transform="translate(38.884118,5.9646875)"
     id="g2743">
    <rect
       x="-0.064999998"
       y="-3.8099999"
       width="0.13"
       height="1.8896"
       ry="0.039999999"
       fill="currentColor"
       id="rect2741" />
  </g>
  <a
     style="color:inherit"
     xlink:href="textedit:///home/potatochup/musicforwesties/music_source/./hold_the_line.ly:30:11:12"
     id="a2751"
     transform="translate(-2.4151818,-3.8453125)">
    <g
       transform="translate(42.5643,5.3)"
       id="g2749">
      <text
         font-family="serif"
         font-size="1.96px"
         text-anchor="start"
         fill="currentColor"
         id="text2747"><tspan
           id="tspan2745">2</tspan></text>
    </g>
  </a>
  <a
     style="color:inherit"
     xlink:href="textedit:///home/potatochup/musicforwesties/music_source/./hold_the_line.ly:30:8:9"
     id="a2757"
     transform="translate(-2.4151818,-3.8453125)">
    <g
       transform="translate(42.5643,8.31)"
       id="g2755">
      <path
         transform="scale(0.004,-0.004)"
         d="m 163,36 119,97 c 3,2 6,3 9,3 3,0 7,-1 10,-3 l 20,-16 c 3,-3 5,-8 5,-12 0,-4 -2,-9 -5,-12 L 206,0 321,-93 c 3,-3 5,-8 5,-12 0,-4 -2,-9 -5,-12 l -20,-16 c -3,-2 -7,-3 -10,-3 -3,0 -6,1 -9,3 L 163,-36 44,-133 c -3,-2 -6,-3 -9,-3 -3,0 -7,1 -10,3 l -20,16 c -3,3 -5,8 -5,12 0,4 2,9 5,12 L 120,0 5,93 c -3,3 -5,8 -5,12 0,4 2,9 5,12 l 20,16 c 3,2 7,3 10,3 3,0 6,-1 9,-3 z"
         fill="currentColor"
         id="path2753" />
    </g>
  </a>
  <a
     style="color:inherit"
     xlink:href="textedit:///home/potatochup/musicforwesties/music_source/./hold_the_line.ly:36:29:30"
     id="a2763"
     transform="translate(-2.4151818,-3.8453125)">
    <g
       transform="translate(42.5643,9.31)"
       id="g2761">
      <path
         transform="scale(0.004,-0.004)"
         d="m 218,136 c 55,0 108,-28 108,-89 0,-71 -55,-121 -102,-149 -35,-21 -75,-34 -116,-34 -55,0 -108,28 -108,89 0,71 55,121 102,149 35,21 75,34 116,34 z"
         fill="currentColor"
         id="path2759" />
    </g>
  </a>
  <g
     transform="translate(41.388318,5.9646875)"
     id="g2767">
    <rect
       x="-0.064999998"
       y="-3.8099999"
       width="0.13"
       height="1.8896"
       ry="0.039999999"
       fill="currentColor"
       id="rect2765" />
  </g>
  <a
     style="color:inherit"
     xlink:href="textedit:///home/potatochup/musicforwesties/music_source/./hold_the_line.ly:25:11:12"
     id="a2775"
     transform="translate(-2.4151818,-3.8453125)">
    <g
       transform="translate(35.0516,5.3057)"
       id="g2773">
      <text
         font-family="serif"
         font-size="1.96px"
         text-anchor="start"
         fill="currentColor"
         id="text2771"><tspan
           id="tspan2769">1</tspan></text>
    </g>
  </a>
  <g
     transform="translate(32.701418,5.9646875)"
     id="g2779">
    <rect
       x="-0.064999998"
       y="1.6861"
       width="0.13"
       height="2.6472001"
       ry="0.039999999"
       fill="currentColor"
       id="rect2777" />
  </g>
  <a
     style="color:inherit"
     xlink:href="textedit:///home/potatochup/musicforwesties/music_source/./hold_the_line.ly:14:4:5"
     id="a2781"
     transform="translate(-2.4151818,-3.8453125)" />
  <a
     style="color:inherit"
     xlink:href="textedit:///home/potatochup/musicforwesties/music_source/./hold_the_line.ly:25:8:9"
     id="a2787"
     transform="translate(-2.4151818,-3.8453125)">
    <g
       transform="translate(35.0516,8.31)"
       id="g2785">
      <path
         transform="scale(0.004,-0.004)"
         d="m 163,36 119,97 c 3,2 6,3 9,3 3,0 7,-1 10,-3 l 20,-16 c 3,-3 5,-8 5,-12 0,-4 -2,-9 -5,-12 L 206,0 321,-93 c 3,-3 5,-8 5,-12 0,-4 -2,-9 -5,-12 l -20,-16 c -3,-2 -7,-3 -10,-3 -3,0 -6,1 -9,3 L 163,-36 44,-133 c -3,-2 -6,-3 -9,-3 -3,0 -7,1 -10,3 l -20,16 c -3,3 -5,8 -5,12 0,4 2,9 5,12 L 120,0 5,93 c -3,3 -5,8 -5,12 0,4 2,9 5,12 l 20,16 c 3,2 7,3 10,3 3,0 6,-1 9,-3 z"
         fill="currentColor"
         id="path2783" />
    </g>
  </a>
  <a
     style="color:inherit"
     xlink:href="textedit:///home/potatochup/musicforwesties/music_source/./hold_the_line.ly:36:19:20"
     id="a2793"
     transform="translate(-2.4151818,-3.8453125)">
    <g
       transform="translate(35.0516,11.31)"
       id="g2791">
      <path
         transform="scale(0.004,-0.004)"
         d="m 218,136 c 55,0 108,-28 108,-89 0,-71 -55,-121 -102,-149 -35,-21 -75,-34 -116,-34 -55,0 -108,28 -108,89 0,71 55,121 102,149 35,21 75,34 116,34 z"
         fill="currentColor"
         id="path2789" />
    </g>
  </a>
  <g
     transform="translate(33.875718,5.9646875)"
     id="g2797">
    <rect
       x="-0.064999998"
       y="-3.8099999"
       width="0.13"
       height="1.8896"
       ry="0.039999999"
       fill="currentColor"
       id="rect2795" />
  </g>
  <a
     style="color:inherit"
     xlink:href="textedit:///home/potatochup/musicforwesties/music_source/./hold_the_line.ly:26:10:11"
     id="a2805"
     transform="translate(-2.4151818,-3.8453125)">
    <g
       transform="translate(37.5559,5.2722)"
       id="g2803">
      <text
         font-family="serif"
         font-size="1.96px"
         text-anchor="start"
         fill="currentColor"
         id="text2801"><tspan
           id="tspan2799">e</tspan></text>
    </g>
  </a>
  <a
     style="color:inherit"
     xlink:href="textedit:///home/potatochup/musicforwesties/music_source/./hold_the_line.ly:26:8:9"
     id="a2811"
     transform="translate(-2.4151818,-3.8453125)">
    <g
       transform="translate(37.5559,8.31)"
       id="g2809">
      <path
         transform="scale(0.004,-0.004)"
         d="m 163,36 119,97 c 3,2 6,3 9,3 3,0 7,-1 10,-3 l 20,-16 c 3,-3 5,-8 5,-12 0,-4 -2,-9 -5,-12 L 206,0 321,-93 c 3,-3 5,-8 5,-12 0,-4 -2,-9 -5,-12 l -20,-16 c -3,-2 -7,-3 -10,-3 -3,0 -6,1 -9,3 L 163,-36 44,-133 c -3,-2 -6,-3 -9,-3 -3,0 -7,1 -10,3 l -20,16 c -3,3 -5,8 -5,12 0,4 2,9 5,12 L 120,0 5,93 c -3,3 -5,8 -5,12 0,4 2,9 5,12 l 20,16 c 3,2 7,3 10,3 3,0 6,-1 9,-3 z"
         fill="currentColor"
         id="path2807" />
    </g>
  </a>
  <g
     transform="translate(36.379918,5.9646875)"
     id="g2815">
    <rect
       x="-0.064999998"
       y="-3.8099999"
       width="0.13"
       height="1.8896"
       ry="0.039999999"
       fill="currentColor"
       id="rect2813" />
  </g>
  <g
     transform="translate(41.323318,2.1546875)"
     id="g2819">
    <polygon
       stroke-linejoin="round"
       stroke-linecap="round"
       stroke-width="0.08"
       fill="currentColor"
       stroke="currentColor"
       points="0.04,0.2 0.04,-0.2 5.0984,-0.2 5.0984,0.2 "
       id="polygon2817" />
  </g>
  <g
     transform="translate(33.810718,2.1546875)"
     id="g2823">
    <polygon
       stroke-linejoin="round"
       stroke-linecap="round"
       stroke-width="0.08"
       fill="currentColor"
       stroke="currentColor"
       points="0.04,0.2 0.04,-0.2 5.0984,-0.2 5.0984,0.2 "
       id="polygon2821" />
  </g>
  <a
     style="color:inherit"
     xlink:href="textedit:///home/potatochup/musicforwesties/music_source/./hold_the_line.ly:29:4:5"
     id="a2825"
     transform="translate(-2.4151818,-3.8453125)" />
  <g
     transform="translate(26.298018,2.1546875)"
     id="g2829">
    <polygon
       stroke-linejoin="round"
       stroke-linecap="round"
       stroke-width="0.08"
       fill="currentColor"
       stroke="currentColor"
       points="0.04,0.2 0.04,-0.2 5.0984,-0.2 5.0984,0.2 "
       id="polygon2827" />
  </g>
  <a
     style="color:inherit"
     xlink:href="textedit:///home/potatochup/musicforwesties/music_source/./hold_the_line.ly:24:4:5"
     id="a2831"
     transform="translate(-2.4151818,-3.8453125)" />
  <g
     transform="translate(18.785418,2.1546875)"
     id="g2835">
    <polygon
       stroke-linejoin="round"
       stroke-linecap="round"
       stroke-width="0.08"
       fill="currentColor"
       stroke="currentColor"
       points="0.04,0.2 0.04,-0.2 5.0984,-0.2 5.0984,0.2 "
       id="polygon2833" />
  </g>
  <a
     style="color:inherit"
     xlink:href="textedit:///home/potatochup/musicforwesties/music_source/./hold_the_line.ly:19:4:5"
     id="a2837"
     transform="translate(-2.4151818,-3.8453125)" />
  <a
     style="color:inherit"
     xlink:href="textedit:///home/potatochup/musicforwesties/music_source/./hold_the_line.ly:31:10:11"
     id="a2845"
     transform="translate(-2.4151818,-3.8453125)">
    <g
       transform="translate(45.0685,5.2722)"
       id="g2843">
      <text
         font-family="serif"
         font-size="1.96px"
         text-anchor="start"
         fill="currentColor"
         id="text2841"><tspan
           id="tspan2839">e</tspan></text>
    </g>
  </a>
  <a
     style="color:inherit"
     xlink:href="textedit:///home/potatochup/musicforwesties/music_source/./hold_the_line.ly:31:8:9"
     id="a2851"
     transform="translate(-2.4151818,-3.8453125)">
    <g
       transform="translate(45.0685,8.31)"
       id="g2849">
      <path
         transform="scale(0.004,-0.004)"
         d="m 163,36 119,97 c 3,2 6,3 9,3 3,0 7,-1 10,-3 l 20,-16 c 3,-3 5,-8 5,-12 0,-4 -2,-9 -5,-12 L 206,0 321,-93 c 3,-3 5,-8 5,-12 0,-4 -2,-9 -5,-12 l -20,-16 c -3,-2 -7,-3 -10,-3 -3,0 -6,1 -9,3 L 163,-36 44,-133 c -3,-2 -6,-3 -9,-3 -3,0 -7,1 -10,3 l -20,16 c -3,3 -5,8 -5,12 0,4 2,9 5,12 L 120,0 5,93 c -3,3 -5,8 -5,12 0,4 2,9 5,12 l 20,16 c 3,2 7,3 10,3 3,0 6,-1 9,-3 z"
         fill="currentColor"
         id="path2847" />
    </g>
  </a>
  <g
     transform="translate(43.892518,5.9646875)"
     id="g2855">
    <rect
       x="-0.064999998"
       y="-3.8099999"
       width="0.13"
       height="1.8896"
       ry="0.039999999"
       fill="currentColor"
       id="rect2853" />
  </g>
  <a
     style="color:inherit"
     xlink:href="textedit:///home/potatochup/musicforwesties/music_source/./hold_the_line.ly:32:10:11"
     id="a2863"
     transform="translate(-2.4151818,-3.8453125)">
    <g
       transform="translate(47.5727,5.2722)"
       id="g2861">
      <text
         font-family="serif"
         font-size="1.96px"
         text-anchor="start"
         fill="currentColor"
         id="text2859"><tspan
           id="tspan2857">a</tspan></text>
    </g>
  </a>
  <a
     style="color:inherit"
     xlink:href="textedit:///home/potatochup/musicforwesties/music_source/./hold_the_line.ly:32:8:9"
     id="a2869"
     transform="translate(-2.4151818,-3.8453125)">
    <g
       transform="translate(47.5727,8.31)"
       id="g2867">
      <path
         transform="scale(0.004,-0.004)"
         d="m 163,36 119,97 c 3,2 6,3 9,3 3,0 7,-1 10,-3 l 20,-16 c 3,-3 5,-8 5,-12 0,-4 -2,-9 -5,-12 L 206,0 321,-93 c 3,-3 5,-8 5,-12 0,-4 -2,-9 -5,-12 l -20,-16 c -3,-2 -7,-3 -10,-3 -3,0 -6,1 -9,3 L 163,-36 44,-133 c -3,-2 -6,-3 -9,-3 -3,0 -7,1 -10,3 l -20,16 c -3,3 -5,8 -5,12 0,4 2,9 5,12 L 120,0 5,93 c -3,3 -5,8 -5,12 0,4 2,9 5,12 l 20,16 c 3,2 7,3 10,3 3,0 6,-1 9,-3 z"
         fill="currentColor"
         id="path2865" />
    </g>
  </a>
  <g
     transform="translate(46.396718,5.9646875)"
     id="g2873">
    <rect
       x="-0.064999998"
       y="-3.8099999"
       width="0.13"
       height="1.8896"
       ry="0.039999999"
       fill="currentColor"
       id="rect2871" />
  </g>
  <a
     style="color:inherit"
     xlink:href="textedit:///home/potatochup/musicforwesties/music_source/./hold_the_line.ly:16:8:9"
     id="a2879"
     transform="translate(-2.4151818,-3.8453125)">
    <g
       transform="translate(22.5306,8.31)"
       id="g2877">
      <path
         transform="scale(0.004,-0.004)"
         d="m 163,36 119,97 c 3,2 6,3 9,3 3,0 7,-1 10,-3 l 20,-16 c 3,-3 5,-8 5,-12 0,-4 -2,-9 -5,-12 L 206,0 321,-93 c 3,-3 5,-8 5,-12 0,-4 -2,-9 -5,-12 l -20,-16 c -3,-2 -7,-3 -10,-3 -3,0 -6,1 -9,3 L 163,-36 44,-133 c -3,-2 -6,-3 -9,-3 -3,0 -7,1 -10,3 l -20,16 c -3,3 -5,8 -5,12 0,4 2,9 5,12 L 120,0 5,93 c -3,3 -5,8 -5,12 0,4 2,9 5,12 l 20,16 c 3,2 7,3 10,3 3,0 6,-1 9,-3 z"
         fill="currentColor"
         id="path2875" />
    </g>
  </a>
  <a
     style="color:inherit"
     xlink:href="textedit:///home/potatochup/musicforwesties/music_source/./hold_the_line.ly:16:10:11"
     id="a2887"
     transform="translate(-2.4151818,-3.8453125)">
    <g
       transform="translate(22.5306,5.2722)"
       id="g2885">
      <text
         font-family="serif"
         font-size="1.96px"
         text-anchor="start"
         fill="currentColor"
         id="text2883"><tspan
           id="tspan2881">e</tspan></text>
    </g>
  </a>
  <g
     transform="translate(21.354618,5.9646875)"
     id="g2891">
    <rect
       x="-0.064999998"
       y="-3.8099999"
       width="0.13"
       height="1.8896"
       ry="0.039999999"
       fill="currentColor"
       id="rect2889" />
  </g>
  <a
     style="color:inherit"
     xlink:href="textedit:///home/potatochup/musicforwesties/music_source/./hold_the_line.ly:17:8:9"
     id="a2897"
     transform="translate(-2.4151818,-3.8453125)">
    <g
       transform="translate(25.0348,8.31)"
       id="g2895">
      <path
         transform="scale(0.004,-0.004)"
         d="m 163,36 119,97 c 3,2 6,3 9,3 3,0 7,-1 10,-3 l 20,-16 c 3,-3 5,-8 5,-12 0,-4 -2,-9 -5,-12 L 206,0 321,-93 c 3,-3 5,-8 5,-12 0,-4 -2,-9 -5,-12 l -20,-16 c -3,-2 -7,-3 -10,-3 -3,0 -6,1 -9,3 L 163,-36 44,-133 c -3,-2 -6,-3 -9,-3 -3,0 -7,1 -10,3 l -20,16 c -3,3 -5,8 -5,12 0,4 2,9 5,12 L 120,0 5,93 c -3,3 -5,8 -5,12 0,4 2,9 5,12 l 20,16 c 3,2 7,3 10,3 3,0 6,-1 9,-3 z"
         fill="currentColor"
         id="path2893" />
    </g>
  </a>
  <g
     transform="translate(23.858818,5.9646875)"
     id="g2901">
    <rect
       x="-0.064999998"
       y="-3.8099999"
       width="0.13"
       height="1.8896"
       ry="0.039999999"
       fill="currentColor"
       id="rect2899" />
  </g>
  <g
     transform="translate(11.941218,5.9646875)"
     id="g2905">
    <path
       transform="scale(0.004,-0.004)"
       d="m 490,-250 h -92 c -6,0 -10,4 -10,10 v 480 c 0,6 4,10 10,10 h 92 c 6,0 10,-4 10,-10 v -480 c 0,-6 -4,-10 -10,-10 z m -220,0 h -93 c -6,0 -10,4 -10,10 v 480 c 0,6 4,10 10,10 h 93 c 6,0 10,-4 10,-10 v -480 c 0,-6 -4,-10 -10,-10 z"
       fill="currentColor"
       id="path2903" />
  </g>
  <g
     transform="translate(5.0581182,3.7848875)"
     id="g2911">
    <text
       font-family="serif"
       font-size="2.2001px"
       text-anchor="start"
       fill="currentColor"
       id="text2909"><tspan
         id="tspan2907">hi-hat</tspan></text>
  </g>
  <g
     transform="translate(5.3312182,6.7848875)"
     id="g2917">
    <text
       font-family="serif"
       font-size="2.2001px"
       text-anchor="start"
       fill="currentColor"
       id="text2915"><tspan
         id="tspan2913">snare</tspan></text>
  </g>
  <g
     transform="translate(-0.06338179,9.7848875)"
     id="g2923">
    <text
       font-family="serif"
       font-size="2.2001px"
       text-anchor="start"
       fill="currentColor"
       id="text2921"><tspan
         id="tspan2919">bass drum</tspan></text>
  </g>
  <a
     style="color:inherit"
     xlink:href="textedit:///home/potatochup/musicforwesties/music_source/./hold_the_line.ly:15:11:12"
     id="a2931"
     transform="translate(-2.4151818,-3.8453125)">
    <g
       transform="translate(20.0264,5.3057)"
       id="g2929">
      <text
         font-family="serif"
         font-size="1.96px"
         text-anchor="start"
         fill="currentColor"
         id="text2927"><tspan
           id="tspan2925">1</tspan></text>
    </g>
  </a>
  <a
     style="color:inherit"
     xlink:href="textedit:///home/potatochup/musicforwesties/music_source/./hold_the_line.ly:15:8:9"
     id="a2937"
     transform="translate(-2.4151818,-3.8453125)">
    <g
       transform="translate(20.0264,8.31)"
       id="g2935">
      <path
         transform="scale(0.004,-0.004)"
         d="m 163,36 119,97 c 3,2 6,3 9,3 3,0 7,-1 10,-3 l 20,-16 c 3,-3 5,-8 5,-12 0,-4 -2,-9 -5,-12 L 206,0 321,-93 c 3,-3 5,-8 5,-12 0,-4 -2,-9 -5,-12 l -20,-16 c -3,-2 -7,-3 -10,-3 -3,0 -6,1 -9,3 L 163,-36 44,-133 c -3,-2 -6,-3 -9,-3 -3,0 -7,1 -10,3 l -20,16 c -3,3 -5,8 -5,12 0,4 2,9 5,12 L 120,0 5,93 c -3,3 -5,8 -5,12 0,4 2,9 5,12 l 20,16 c 3,2 7,3 10,3 3,0 6,-1 9,-3 z"
         fill="currentColor"
         id="path2933" />
    </g>
  </a>
  <a
     style="color:inherit"
     xlink:href="textedit:///home/potatochup/musicforwesties/music_source/./hold_the_line.ly:36:2:3"
     id="a2943"
     transform="translate(-2.4151818,-3.8453125)">
    <g
       transform="translate(20.0264,11.31)"
       id="g2941">
      <path
         transform="scale(0.004,-0.004)"
         d="m 218,136 c 55,0 108,-28 108,-89 0,-71 -55,-121 -102,-149 -35,-21 -75,-34 -116,-34 -55,0 -108,28 -108,89 0,71 55,121 102,149 35,21 75,34 116,34 z"
         fill="currentColor"
         id="path2939" />
    </g>
  </a>
  <a
     style="color:inherit"
     xlink:href="textedit:///home/potatochup/musicforwesties/music_source/./hold_the_line.ly:17:10:11"
     id="a2951"
     transform="translate(-2.4151818,-3.8453125)">
    <g
       transform="translate(25.0348,5.2722)"
       id="g2949">
      <text
         font-family="serif"
         font-size="1.96px"
         text-anchor="start"
         fill="currentColor"
         id="text2947"><tspan
           id="tspan2945">a</tspan></text>
    </g>
  </a>
  <g
     transform="translate(18.850418,5.9646875)"
     id="g2955">
    <rect
       x="-0.064999998"
       y="-3.8099999"
       width="0.13"
       height="1.8896"
       ry="0.039999999"
       fill="currentColor"
       id="rect2953" />
  </g>
  <g
     transform="translate(17.676218,5.9646875)"
     id="g2959">
    <rect
       x="-0.064999998"
       y="1.6861"
       width="0.13"
       height="2.6472001"
       ry="0.039999999"
       fill="currentColor"
       id="rect2957" />
  </g>
  <a
     style="color:inherit"
     xlink:href="textedit:///home/potatochup/musicforwesties/music_source/./hold_the_line.ly:21:10:11"
     id="a2967"
     transform="translate(-2.4151818,-3.8453125)">
    <g
       transform="translate(30.0432,5.2722)"
       id="g2965">
      <text
         font-family="serif"
         font-size="1.96px"
         text-anchor="start"
         fill="currentColor"
         id="text2963"><tspan
           id="tspan2961">e</tspan></text>
    </g>
  </a>
  <a
     style="color:inherit"
     xlink:href="textedit:///home/potatochup/musicforwesties/music_source/./hold_the_line.ly:21:8:9"
     id="a2973"
     transform="translate(-2.4151818,-3.8453125)">
    <g
       transform="translate(30.0432,8.31)"
       id="g2971">
      <path
         transform="scale(0.004,-0.004)"
         d="m 163,36 119,97 c 3,2 6,3 9,3 3,0 7,-1 10,-3 l 20,-16 c 3,-3 5,-8 5,-12 0,-4 -2,-9 -5,-12 L 206,0 321,-93 c 3,-3 5,-8 5,-12 0,-4 -2,-9 -5,-12 l -20,-16 c -3,-2 -7,-3 -10,-3 -3,0 -6,1 -9,3 L 163,-36 44,-133 c -3,-2 -6,-3 -9,-3 -3,0 -7,1 -10,3 l -20,16 c -3,3 -5,8 -5,12 0,4 2,9 5,12 L 120,0 5,93 c -3,3 -5,8 -5,12 0,4 2,9 5,12 l 20,16 c 3,2 7,3 10,3 3,0 6,-1 9,-3 z"
         fill="currentColor"
         id="path2969" />
    </g>
  </a>
  <g
     transform="translate(28.867218,5.9646875)"
     id="g2977">
    <rect
       x="-0.064999998"
       y="-3.8099999"
       width="0.13"
       height="1.8896"
       ry="0.039999999"
       fill="currentColor"
       id="rect2975" />
  </g>
  <a
     style="color:inherit"
     xlink:href="textedit:///home/potatochup/musicforwesties/music_source/./hold_the_line.ly:22:10:11"
     id="a2985"
     transform="translate(-2.4151818,-3.8453125)">
    <g
       transform="translate(32.5474,5.2722)"
       id="g2983">
      <text
         font-family="serif"
         font-size="1.96px"
         text-anchor="start"
         fill="currentColor"
         id="text2981"><tspan
           id="tspan2979">a</tspan></text>
    </g>
  </a>
  <a
     style="color:inherit"
     xlink:href="textedit:///home/potatochup/musicforwesties/music_source/./hold_the_line.ly:22:8:9"
     id="a2991"
     transform="translate(-2.4151818,-3.8453125)">
    <g
       transform="translate(32.5474,8.31)"
       id="g2989">
      <path
         transform="scale(0.004,-0.004)"
         d="m 163,36 119,97 c 3,2 6,3 9,3 3,0 7,-1 10,-3 l 20,-16 c 3,-3 5,-8 5,-12 0,-4 -2,-9 -5,-12 L 206,0 321,-93 c 3,-3 5,-8 5,-12 0,-4 -2,-9 -5,-12 l -20,-16 c -3,-2 -7,-3 -10,-3 -3,0 -6,1 -9,3 L 163,-36 44,-133 c -3,-2 -6,-3 -9,-3 -3,0 -7,1 -10,3 l -20,16 c -3,3 -5,8 -5,12 0,4 2,9 5,12 L 120,0 5,93 c -3,3 -5,8 -5,12 0,4 2,9 5,12 l 20,16 c 3,2 7,3 10,3 3,0 6,-1 9,-3 z"
         fill="currentColor"
         id="path2987" />
    </g>
  </a>
  <g
     transform="translate(31.371418,5.9646875)"
     id="g2995">
    <rect
       x="-0.064999998"
       y="-3.8099999"
       width="0.13"
       height="1.8896"
       ry="0.039999999"
       fill="currentColor"
       id="rect2993" />
  </g>
  <a
     style="color:inherit"
     xlink:href="textedit:///home/potatochup/musicforwesties/music_source/./hold_the_line.ly:20:11:12"
     id="a3003"
     transform="translate(-2.4151818,-3.8453125)">
    <g
       transform="translate(27.539,5.3)"
       id="g3001">
      <text
         font-family="serif"
         font-size="1.96px"
         text-anchor="start"
         fill="currentColor"
         id="text2999"><tspan
           id="tspan2997">2</tspan></text>
    </g>
  </a>
  <a
     style="color:inherit"
     xlink:href="textedit:///home/potatochup/musicforwesties/music_source/./hold_the_line.ly:20:8:9"
     id="a3009"
     transform="translate(-2.4151818,-3.8453125)">
    <g
       transform="translate(27.539,8.31)"
       id="g3007">
      <path
         transform="scale(0.004,-0.004)"
         d="m 163,36 119,97 c 3,2 6,3 9,3 3,0 7,-1 10,-3 l 20,-16 c 3,-3 5,-8 5,-12 0,-4 -2,-9 -5,-12 L 206,0 321,-93 c 3,-3 5,-8 5,-12 0,-4 -2,-9 -5,-12 l -20,-16 c -3,-2 -7,-3 -10,-3 -3,0 -6,1 -9,3 L 163,-36 44,-133 c -3,-2 -6,-3 -9,-3 -3,0 -7,1 -10,3 l -20,16 c -3,3 -5,8 -5,12 0,4 2,9 5,12 L 120,0 5,93 c -3,3 -5,8 -5,12 0,4 2,9 5,12 l 20,16 c 3,2 7,3 10,3 3,0 6,-1 9,-3 z"
         fill="currentColor"
         id="path3005" />
    </g>
  </a>
  <a
     style="color:inherit"
     xlink:href="textedit:///home/potatochup/musicforwesties/music_source/./hold_the_line.ly:36:12:13"
     id="a3015"
     transform="translate(-2.4151818,-3.8453125)">
    <g
       transform="translate(27.539,9.31)"
       id="g3013">
      <path
         transform="scale(0.004,-0.004)"
         d="m 218,136 c 55,0 108,-28 108,-89 0,-71 -55,-121 -102,-149 -35,-21 -75,-34 -116,-34 -55,0 -108,28 -108,89 0,71 55,121 102,149 35,21 75,34 116,34 z"
         fill="currentColor"
         id="path3011" />
    </g>
  </a>
  <g
     transform="translate(25.188818,5.9646875)"
     id="g3019">
    <rect
       x="-0.064999998"
       y="-0.31389999"
       width="0.13"
       height="3.3139"
       ry="0.039999999"
       fill="currentColor"
       id="rect3017" />
  </g>
  <g
     transform="translate(26.363018,5.9646875)"
     id="g3023">
    <rect
       x="-0.064999998"
       y="-3.8099999"
       width="0.13"
       height="1.8896"
       ry="0.039999999"
       fill="currentColor"
       id="rect3021" />
  </g>
  <g
     transform="translate(26.555418,161.26089)"
     id="g3029">
    <a
       xlink:href="https://lilypond.org/"
       id="a3027">
      <rect
         x="0"
         y="-0.48879999"
         width="61.560398"
         height="2.1603"
         fill="none"
         stroke="none"
         stroke-width="0"
         id="rect3025" />
    </a>
  </g>
  <g
     transform="translate(26.555418,161.26089)"
     id="g3035">
    <text
       font-family="serif"
       font-size="2.2001px"
       text-anchor="start"
       fill="currentColor"
       id="text3033"><tspan
         id="tspan3031">Music engraving by LilyPond 2.22.1—www.lilypond.org</tspan></text>
  </g>
</svg>
