<?xml version="1.0" encoding="UTF-8" standalone="no"?>
<svg
   version="1.2"
   width="75.366707mm"
   height="18.887424mm"
   viewBox="0 0 42.887819 10.747987"
   id="svg1939"
   sodipodi:docname="i_got_the_blues.svg"
   inkscape:version="1.1.2 (0a00cf5339, 2022-02-04)"
   xmlns:inkscape="http://www.inkscape.org/namespaces/inkscape"
   xmlns:sodipodi="http://sodipodi.sourceforge.net/DTD/sodipodi-0.dtd"
   xmlns:xlink="http://www.w3.org/1999/xlink"
   xmlns="http://www.w3.org/2000/svg"
   xmlns:svg="http://www.w3.org/2000/svg">
  <defs
     id="defs1943" />
  <sodipodi:namedview
     id="namedview1941"
     pagecolor="#ffffff"
     bordercolor="#666666"
     borderopacity="1.0"
     inkscape:pageshadow="2"
     inkscape:pageopacity="0.0"
     inkscape:pagecheckerboard="0"
     inkscape:document-units="mm"
     showgrid="false"
     inkscape:zoom="0.64052329"
     inkscape:cx="381.71914"
     inkscape:cy="161.58663"
     inkscape:window-width="1128"
     inkscape:window-height="688"
     inkscape:window-x="0"
     inkscape:window-y="0"
     inkscape:window-maximized="1"
     inkscape:current-layer="svg1939" />
  <style
     type="text/css"
     id="style1663"><![CDATA[
tspan { white-space: pre; }
]]></style>
  <!-- Page: 1/1 -->
  <g
     transform="translate(11.811218,8.4146875)"
     id="g1667">
    <line
       stroke-linejoin="round"
       stroke-linecap="round"
       stroke-width="0.1"
       stroke="currentColor"
       x1="0.050000001"
       y1="0"
       x2="31.0266"
       y2="0"
       id="line1665" />
  </g>
  <g
     transform="translate(11.811218,7.4146875)"
     id="g1671">
    <line
       stroke-linejoin="round"
       stroke-linecap="round"
       stroke-width="0.1"
       stroke="currentColor"
       x1="0.050000001"
       y1="0"
       x2="31.0266"
       y2="0"
       id="line1669" />
  </g>
  <g
     transform="translate(11.811218,6.4146875)"
     id="g1675">
    <line
       stroke-linejoin="round"
       stroke-linecap="round"
       stroke-width="0.1"
       stroke="currentColor"
       x1="0.050000001"
       y1="0"
       x2="31.0266"
       y2="0"
       id="line1673" />
  </g>
  <g
     transform="translate(11.811218,5.4146875)"
     id="g1679">
    <line
       stroke-linejoin="round"
       stroke-linecap="round"
       stroke-width="0.1"
       stroke="currentColor"
       x1="0.050000001"
       y1="0"
       x2="31.0266"
       y2="0"
       id="line1677" />
  </g>
  <g
     transform="translate(11.811218,4.4146875)"
     id="g1683">
    <line
       stroke-linejoin="round"
       stroke-linecap="round"
       stroke-width="0.1"
       stroke="currentColor"
       x1="0.050000001"
       y1="0"
       x2="31.0266"
       y2="0"
       id="line1681" />
  </g>
  <g
     transform="translate(42.697818,6.4146875)"
     id="g1687">
    <rect
       x="0"
       y="-2"
       width="0.19"
       height="4"
       ry="0.0000"
       fill="currentColor"
       id="rect1685" />
  </g>
  <a
     style="color:inherit"
     xlink:href="textedit:///home/potatochup/musicforwesties/music_source/./i_got_the_blues.ly:20:6:7"
     id="a1695"
     transform="translate(-2.4151818,-3.8453125)">
    <g
       transform="translate(38.8413,5.3)"
       id="g1693">
      <text
         font-family="serif"
         font-size="1.96px"
         text-anchor="start"
         fill="currentColor"
         id="text1691"><tspan
           id="tspan1689">2</tspan></text>
    </g>
  </a>
  <g
     transform="translate(35.162918,1.9546875)"
     id="g1699">
    <path
       transform="scale(0.004,-0.004)"
       d="M 0,0 V -250 H -16 V 0 Z m 0,0 c 0,-197 207,-336 207,-533 0,-71 -15,-141 -41,-207 -5,-8 -13,-12 -20,-12 -13,0 -26,11 -23,27 26,61 42,126 42,192 0,103 -94,208 -165,283 z"
       fill="currentColor"
       id="path1697" />
  </g>
  <g
     transform="translate(35.097918,6.4146875)"
     id="g1703">
    <rect
       x="-0.064999998"
       y="-4.5"
       width="0.13"
       height="2.5796001"
       ry="0.039999999"
       fill="currentColor"
       id="rect1701" />
  </g>
  <a
     style="color:inherit"
     xlink:href="textedit:///home/potatochup/musicforwesties/music_source/./i_got_the_blues.ly:19:4:5"
     id="a1709"
     transform="translate(-2.4151818,-3.8453125)">
    <g
       transform="translate(36.2739,8.76)"
       id="g1707">
      <path
         transform="scale(0.004,-0.004)"
         d="m 163,36 119,97 c 3,2 6,3 9,3 3,0 7,-1 10,-3 l 20,-16 c 3,-3 5,-8 5,-12 0,-4 -2,-9 -5,-12 L 206,0 321,-93 c 3,-3 5,-8 5,-12 0,-4 -2,-9 -5,-12 l -20,-16 c -3,-2 -7,-3 -10,-3 -3,0 -6,1 -9,3 L 163,-36 44,-133 c -3,-2 -6,-3 -9,-3 -3,0 -7,1 -10,3 l -20,16 c -3,3 -5,8 -5,12 0,4 2,9 5,12 L 120,0 5,93 c -3,3 -5,8 -5,12 0,4 2,9 5,12 l 20,16 c 3,2 7,3 10,3 3,0 6,-1 9,-3 z"
         fill="currentColor"
         id="path1705" />
    </g>
  </a>
  <a
     style="color:inherit"
     xlink:href="textedit:///home/potatochup/musicforwesties/music_source/./i_got_the_blues.ly:19:6:7"
     id="a1717"
     transform="translate(-2.4151818,-3.8453125)">
    <g
       transform="translate(36.2739,5.3)"
       id="g1715">
      <text
         font-family="serif"
         font-size="1.96px"
         text-anchor="start"
         fill="currentColor"
         id="text1713"><tspan
           id="tspan1711">a</tspan></text>
    </g>
  </a>
  <g
     transform="translate(30.219518,6.4146875)"
     id="g1721">
    <rect
       x="-0.064999998"
       y="1.6861"
       width="0.13"
       height="2.6472001"
       ry="0.039999999"
       fill="currentColor"
       id="rect1719" />
  </g>
  <g
     transform="translate(31.458718,1.9546875)"
     id="g1725">
    <path
       transform="scale(0.004,-0.004)"
       d="M 0,0 V -250 H -16 V 0 Z m 0,0 c 0,-197 207,-336 207,-533 0,-71 -15,-141 -41,-207 -5,-8 -13,-12 -20,-12 -13,0 -26,11 -23,27 26,61 42,126 42,192 0,103 -94,208 -165,283 z"
       fill="currentColor"
       id="path1723" />
  </g>
  <g
     transform="translate(31.393718,6.4146875)"
     id="g1729">
    <rect
       x="-0.064999998"
       y="-4.5"
       width="0.13"
       height="2.5796001"
       ry="0.039999999"
       fill="currentColor"
       id="rect1727" />
  </g>
  <a
     style="color:inherit"
     xlink:href="textedit:///home/potatochup/musicforwesties/music_source/./i_got_the_blues.ly:25:19:20"
     id="a1735"
     transform="translate(-2.4151818,-3.8453125)">
    <g
       transform="translate(32.5697,11.76)"
       id="g1733">
      <path
         transform="scale(0.004,-0.004)"
         d="m 218,136 c 55,0 108,-28 108,-89 0,-71 -55,-121 -102,-149 -35,-21 -75,-34 -116,-34 -55,0 -108,28 -108,89 0,71 55,121 102,149 35,21 75,34 116,34 z"
         fill="currentColor"
         id="path1731" />
    </g>
  </a>
  <a
     style="color:inherit"
     xlink:href="textedit:///home/potatochup/musicforwesties/music_source/./i_got_the_blues.ly:18:4:5"
     id="a1741"
     transform="translate(-2.4151818,-3.8453125)">
    <g
       transform="translate(32.5697,8.76)"
       id="g1739">
      <path
         transform="scale(0.004,-0.004)"
         d="m 163,36 119,97 c 3,2 6,3 9,3 3,0 7,-1 10,-3 l 20,-16 c 3,-3 5,-8 5,-12 0,-4 -2,-9 -5,-12 L 206,0 321,-93 c 3,-3 5,-8 5,-12 0,-4 -2,-9 -5,-12 l -20,-16 c -3,-2 -7,-3 -10,-3 -3,0 -6,1 -9,3 L 163,-36 44,-133 c -3,-2 -6,-3 -9,-3 -3,0 -7,1 -10,3 l -20,16 c -3,3 -5,8 -5,12 0,4 2,9 5,12 L 120,0 5,93 c -3,3 -5,8 -5,12 0,4 2,9 5,12 l 20,16 c 3,2 7,3 10,3 3,0 6,-1 9,-3 z"
         fill="currentColor"
         id="path1737" />
    </g>
  </a>
  <a
     style="color:inherit"
     xlink:href="textedit:///home/potatochup/musicforwesties/music_source/./i_got_the_blues.ly:18:6:7"
     id="a1749"
     transform="translate(-2.4151818,-3.8453125)">
    <g
       transform="translate(32.5697,5.3057)"
       id="g1747">
      <text
         font-family="serif"
         font-size="1.96px"
         text-anchor="start"
         fill="currentColor"
         id="text1745"><tspan
           id="tspan1743">1</tspan></text>
    </g>
  </a>
  <g
     transform="translate(28.891318,1.9546875)"
     id="g1753">
    <path
       transform="scale(0.004,-0.004)"
       d="M 0,0 V -250 H -16 V 0 Z m 0,0 c 0,-197 207,-336 207,-533 0,-71 -15,-141 -41,-207 -5,-8 -13,-12 -20,-12 -13,0 -26,11 -23,27 26,61 42,126 42,192 0,103 -94,208 -165,283 z"
       fill="currentColor"
       id="path1751" />
  </g>
  <a
     style="color:inherit"
     xlink:href="textedit:///home/potatochup/musicforwesties/music_source/./i_got_the_blues.ly:21:4:5"
     id="a1759"
     transform="translate(-2.4151818,-3.8453125)">
    <g
       transform="translate(42.5455,8.76)"
       id="g1757">
      <path
         transform="scale(0.004,-0.004)"
         d="m 163,36 119,97 c 3,2 6,3 9,3 3,0 7,-1 10,-3 l 20,-16 c 3,-3 5,-8 5,-12 0,-4 -2,-9 -5,-12 L 206,0 321,-93 c 3,-3 5,-8 5,-12 0,-4 -2,-9 -5,-12 l -20,-16 c -3,-2 -7,-3 -10,-3 -3,0 -6,1 -9,3 L 163,-36 44,-133 c -3,-2 -6,-3 -9,-3 -3,0 -7,1 -10,3 l -20,16 c -3,3 -5,8 -5,12 0,4 2,9 5,12 L 120,0 5,93 c -3,3 -5,8 -5,12 0,4 2,9 5,12 l 20,16 c 3,2 7,3 10,3 3,0 6,-1 9,-3 z"
         fill="currentColor"
         id="path1755" />
    </g>
  </a>
  <g
     transform="translate(41.434618,1.9546875)"
     id="g1763">
    <path
       transform="scale(0.004,-0.004)"
       d="M 0,0 V -250 H -16 V 0 Z m 0,0 c 0,-197 207,-336 207,-533 0,-71 -15,-141 -41,-207 -5,-8 -13,-12 -20,-12 -13,0 -26,11 -23,27 26,61 42,126 42,192 0,103 -94,208 -165,283 z"
       fill="currentColor"
       id="path1761" />
  </g>
  <g
     transform="translate(41.369618,6.4146875)"
     id="g1767">
    <rect
       x="-0.064999998"
       y="-4.5"
       width="0.13"
       height="2.5796001"
       ry="0.039999999"
       fill="currentColor"
       id="rect1765" />
  </g>
  <a
     style="color:inherit"
     xlink:href="textedit:///home/potatochup/musicforwesties/music_source/./i_got_the_blues.ly:20:4:5"
     id="a1773"
     transform="translate(-2.4151818,-3.8453125)">
    <g
       transform="translate(38.8413,8.76)"
       id="g1771">
      <path
         transform="scale(0.004,-0.004)"
         d="m 163,36 119,97 c 3,2 6,3 9,3 3,0 7,-1 10,-3 l 20,-16 c 3,-3 5,-8 5,-12 0,-4 -2,-9 -5,-12 L 206,0 321,-93 c 3,-3 5,-8 5,-12 0,-4 -2,-9 -5,-12 l -20,-16 c -3,-2 -7,-3 -10,-3 -3,0 -6,1 -9,3 L 163,-36 44,-133 c -3,-2 -6,-3 -9,-3 -3,0 -7,1 -10,3 l -20,16 c -3,3 -5,8 -5,12 0,4 2,9 5,12 L 120,0 5,93 c -3,3 -5,8 -5,12 0,4 2,9 5,12 l 20,16 c 3,2 7,3 10,3 3,0 6,-1 9,-3 z"
         fill="currentColor"
         id="path1769" />
    </g>
  </a>
  <a
     style="color:inherit"
     xlink:href="textedit:///home/potatochup/musicforwesties/music_source/./i_got_the_blues.ly:21:6:7"
     id="a1781"
     transform="translate(-2.4151818,-3.8453125)">
    <g
       transform="translate(42.5455,5.3)"
       id="g1779">
      <text
         font-family="serif"
         font-size="1.96px"
         text-anchor="start"
         fill="currentColor"
         id="text1777"><tspan
           id="tspan1775">a</tspan></text>
    </g>
  </a>
  <g
     transform="translate(36.491118,6.4146875)"
     id="g1785">
    <rect
       x="-0.064999998"
       y="-0.31389999"
       width="0.13"
       height="3.3139"
       ry="0.039999999"
       fill="currentColor"
       id="rect1783" />
  </g>
  <g
     transform="translate(37.730318,1.9546875)"
     id="g1789">
    <path
       transform="scale(0.004,-0.004)"
       d="M 0,0 V -250 H -16 V 0 Z m 0,0 c 0,-197 207,-336 207,-533 0,-71 -15,-141 -41,-207 -5,-8 -13,-12 -20,-12 -13,0 -26,11 -23,27 26,61 42,126 42,192 0,103 -94,208 -165,283 z"
       fill="currentColor"
       id="path1787" />
  </g>
  <g
     transform="translate(37.665318,6.4146875)"
     id="g1793">
    <rect
       x="-0.064999998"
       y="-4.5"
       width="0.13"
       height="2.5796001"
       ry="0.039999999"
       fill="currentColor"
       id="rect1791" />
  </g>
  <a
     style="color:inherit"
     xlink:href="textedit:///home/potatochup/musicforwesties/music_source/./i_got_the_blues.ly:25:29:30"
     id="a1799"
     transform="translate(-2.4151818,-3.8453125)">
    <g
       transform="translate(38.8413,9.76)"
       id="g1797">
      <path
         transform="scale(0.004,-0.004)"
         d="m 218,136 c 55,0 108,-28 108,-89 0,-71 -55,-121 -102,-149 -35,-21 -75,-34 -116,-34 -55,0 -108,28 -108,89 0,71 55,121 102,149 35,21 75,34 116,34 z"
         fill="currentColor"
         id="path1795" />
    </g>
  </a>
  <g
     transform="translate(18.915418,1.9546875)"
     id="g1803">
    <path
       transform="scale(0.004,-0.004)"
       d="M 0,0 V -250 H -16 V 0 Z m 0,0 c 0,-197 207,-336 207,-533 0,-71 -15,-141 -41,-207 -5,-8 -13,-12 -20,-12 -13,0 -26,11 -23,27 26,61 42,126 42,192 0,103 -94,208 -165,283 z"
       fill="currentColor"
       id="path1801" />
  </g>
  <g
     transform="translate(28.826318,6.4146875)"
     id="g1807">
    <rect
       x="-0.064999998"
       y="-4.5"
       width="0.13"
       height="2.5796001"
       ry="0.039999999"
       fill="currentColor"
       id="rect1805" />
  </g>
  <g
     transform="translate(17.676218,6.4146875)"
     id="g1811">
    <rect
       x="-0.064999998"
       y="1.6861"
       width="0.13"
       height="2.6472001"
       ry="0.039999999"
       fill="currentColor"
       id="rect1809" />
  </g>
  <g
     transform="translate(18.850418,6.4146875)"
     id="g1815">
    <rect
       x="-0.064999998"
       y="-4.5"
       width="0.13"
       height="2.5796001"
       ry="0.039999999"
       fill="currentColor"
       id="rect1813" />
  </g>
  <g
     transform="translate(11.941218,6.4146875)"
     id="g1819">
    <path
       transform="scale(0.004,-0.004)"
       d="m 490,-250 h -92 c -6,0 -10,4 -10,10 v 480 c 0,6 4,10 10,10 h 92 c 6,0 10,-4 10,-10 v -480 c 0,-6 -4,-10 -10,-10 z m -220,0 h -93 c -6,0 -10,4 -10,10 v 480 c 0,6 4,10 10,10 h 93 c 6,0 10,-4 10,-10 v -480 c 0,-6 -4,-10 -10,-10 z"
       fill="currentColor"
       id="path1817" />
  </g>
  <a
     style="color:inherit"
     xlink:href="textedit:///home/potatochup/musicforwesties/music_source/./i_got_the_blues.ly:25:2:3"
     id="a1825"
     transform="translate(-2.4151818,-3.8453125)">
    <g
       transform="translate(20.0264,11.76)"
       id="g1823">
      <path
         transform="scale(0.004,-0.004)"
         d="m 218,136 c 55,0 108,-28 108,-89 0,-71 -55,-121 -102,-149 -35,-21 -75,-34 -116,-34 -55,0 -108,28 -108,89 0,71 55,121 102,149 35,21 75,34 116,34 z"
         fill="currentColor"
         id="path1821" />
    </g>
  </a>
  <a
     style="color:inherit"
     xlink:href="textedit:///home/potatochup/musicforwesties/music_source/./i_got_the_blues.ly:14:4:5"
     id="a1831"
     transform="translate(-2.4151818,-3.8453125)">
    <g
       transform="translate(20.0264,8.76)"
       id="g1829">
      <path
         transform="scale(0.004,-0.004)"
         d="m 163,36 119,97 c 3,2 6,3 9,3 3,0 7,-1 10,-3 l 20,-16 c 3,-3 5,-8 5,-12 0,-4 -2,-9 -5,-12 L 206,0 321,-93 c 3,-3 5,-8 5,-12 0,-4 -2,-9 -5,-12 l -20,-16 c -3,-2 -7,-3 -10,-3 -3,0 -6,1 -9,3 L 163,-36 44,-133 c -3,-2 -6,-3 -9,-3 -3,0 -7,1 -10,3 l -20,16 c -3,3 -5,8 -5,12 0,4 2,9 5,12 L 120,0 5,93 c -3,3 -5,8 -5,12 0,4 2,9 5,12 l 20,16 c 3,2 7,3 10,3 3,0 6,-1 9,-3 z"
         fill="currentColor"
         id="path1827" />
    </g>
  </a>
  <a
     style="color:inherit"
     xlink:href="textedit:///home/potatochup/musicforwesties/music_source/./i_got_the_blues.ly:14:7:8"
     id="a1839"
     transform="translate(-2.4151818,-3.8453125)">
    <g
       transform="translate(20.0264,5.3057)"
       id="g1837">
      <text
         font-family="serif"
         font-size="1.96px"
         text-anchor="start"
         fill="currentColor"
         id="text1835"><tspan
           id="tspan1833">1</tspan></text>
    </g>
  </a>
  <g
     transform="translate(5.0581182,4.2348875)"
     id="g1845">
    <text
       font-family="serif"
       font-size="2.2001px"
       text-anchor="start"
       fill="currentColor"
       id="text1843"><tspan
         id="tspan1841">hi-hat</tspan></text>
  </g>
  <g
     transform="translate(5.3312182,7.2348875)"
     id="g1851">
    <text
       font-family="serif"
       font-size="2.2001px"
       text-anchor="start"
       fill="currentColor"
       id="text1849"><tspan
         id="tspan1847">snare</tspan></text>
  </g>
  <g
     transform="translate(-0.06338179,10.234888)"
     id="g1857">
    <text
       font-family="serif"
       font-size="2.2001px"
       text-anchor="start"
       fill="currentColor"
       id="text1855"><tspan
         id="tspan1853">bass drum</tspan></text>
  </g>
  <a
     style="color:inherit"
     xlink:href="textedit:///home/potatochup/musicforwesties/music_source/./i_got_the_blues.ly:17:4:5"
     id="a1863"
     transform="translate(-2.4151818,-3.8453125)">
    <g
       transform="translate(30.0022,8.76)"
       id="g1861">
      <path
         transform="scale(0.004,-0.004)"
         d="m 163,36 119,97 c 3,2 6,3 9,3 3,0 7,-1 10,-3 l 20,-16 c 3,-3 5,-8 5,-12 0,-4 -2,-9 -5,-12 L 206,0 321,-93 c 3,-3 5,-8 5,-12 0,-4 -2,-9 -5,-12 l -20,-16 c -3,-2 -7,-3 -10,-3 -3,0 -6,1 -9,3 L 163,-36 44,-133 c -3,-2 -6,-3 -9,-3 -3,0 -7,1 -10,3 l -20,16 c -3,3 -5,8 -5,12 0,4 2,9 5,12 L 120,0 5,93 c -3,3 -5,8 -5,12 0,4 2,9 5,12 l 20,16 c 3,2 7,3 10,3 3,0 6,-1 9,-3 z"
         fill="currentColor"
         id="path1859" />
    </g>
  </a>
  <a
     style="color:inherit"
     xlink:href="textedit:///home/potatochup/musicforwesties/music_source/./i_got_the_blues.ly:17:6:7"
     id="a1871"
     transform="translate(-2.4151818,-3.8453125)">
    <g
       transform="translate(30.0022,5.3)"
       id="g1869">
      <text
         font-family="serif"
         font-size="1.96px"
         text-anchor="start"
         fill="currentColor"
         id="text1867"><tspan
           id="tspan1865">a</tspan></text>
    </g>
  </a>
  <g
     transform="translate(23.947818,6.4146875)"
     id="g1875">
    <rect
       x="-0.064999998"
       y="-0.31389999"
       width="0.13"
       height="3.3139"
       ry="0.039999999"
       fill="currentColor"
       id="rect1873" />
  </g>
  <g
     transform="translate(25.187018,1.9546875)"
     id="g1879">
    <path
       transform="scale(0.004,-0.004)"
       d="M 0,0 V -250 H -16 V 0 Z m 0,0 c 0,-197 207,-336 207,-533 0,-71 -15,-141 -41,-207 -5,-8 -13,-12 -20,-12 -13,0 -26,11 -23,27 26,61 42,126 42,192 0,103 -94,208 -165,283 z"
       fill="currentColor"
       id="path1877" />
  </g>
  <g
     transform="translate(25.122018,6.4146875)"
     id="g1883">
    <rect
       x="-0.064999998"
       y="-4.5"
       width="0.13"
       height="2.5796001"
       ry="0.039999999"
       fill="currentColor"
       id="rect1881" />
  </g>
  <a
     style="color:inherit"
     xlink:href="textedit:///home/potatochup/musicforwesties/music_source/./i_got_the_blues.ly:25:12:13"
     id="a1889"
     transform="translate(-2.4151818,-3.8453125)">
    <g
       transform="translate(26.298,9.76)"
       id="g1887">
      <path
         transform="scale(0.004,-0.004)"
         d="m 218,136 c 55,0 108,-28 108,-89 0,-71 -55,-121 -102,-149 -35,-21 -75,-34 -116,-34 -55,0 -108,28 -108,89 0,71 55,121 102,149 35,21 75,34 116,34 z"
         fill="currentColor"
         id="path1885" />
    </g>
  </a>
  <a
     style="color:inherit"
     xlink:href="textedit:///home/potatochup/musicforwesties/music_source/./i_got_the_blues.ly:16:6:7"
     id="a1897"
     transform="translate(-2.4151818,-3.8453125)">
    <g
       transform="translate(26.298,5.3)"
       id="g1895">
      <text
         font-family="serif"
         font-size="1.96px"
         text-anchor="start"
         fill="currentColor"
         id="text1893"><tspan
           id="tspan1891">2</tspan></text>
    </g>
  </a>
  <a
     style="color:inherit"
     xlink:href="textedit:///home/potatochup/musicforwesties/music_source/./i_got_the_blues.ly:15:6:7"
     id="a1905"
     transform="translate(-2.4151818,-3.8453125)">
    <g
       transform="translate(23.7306,5.3)"
       id="g1903">
      <text
         font-family="serif"
         font-size="1.96px"
         text-anchor="start"
         fill="currentColor"
         id="text1901"><tspan
           id="tspan1899">a</tspan></text>
    </g>
  </a>
  <a
     style="color:inherit"
     xlink:href="textedit:///home/potatochup/musicforwesties/music_source/./i_got_the_blues.ly:15:4:5"
     id="a1911"
     transform="translate(-2.4151818,-3.8453125)">
    <g
       transform="translate(23.7306,8.76)"
       id="g1909">
      <path
         transform="scale(0.004,-0.004)"
         d="m 163,36 119,97 c 3,2 6,3 9,3 3,0 7,-1 10,-3 l 20,-16 c 3,-3 5,-8 5,-12 0,-4 -2,-9 -5,-12 L 206,0 321,-93 c 3,-3 5,-8 5,-12 0,-4 -2,-9 -5,-12 l -20,-16 c -3,-2 -7,-3 -10,-3 -3,0 -6,1 -9,3 L 163,-36 44,-133 c -3,-2 -6,-3 -9,-3 -3,0 -7,1 -10,3 l -20,16 c -3,3 -5,8 -5,12 0,4 2,9 5,12 L 120,0 5,93 c -3,3 -5,8 -5,12 0,4 2,9 5,12 l 20,16 c 3,2 7,3 10,3 3,0 6,-1 9,-3 z"
         fill="currentColor"
         id="path1907" />
    </g>
  </a>
  <g
     transform="translate(22.619618,1.9546875)"
     id="g1915">
    <path
       transform="scale(0.004,-0.004)"
       d="M 0,0 V -250 H -16 V 0 Z m 0,0 c 0,-197 207,-336 207,-533 0,-71 -15,-141 -41,-207 -5,-8 -13,-12 -20,-12 -13,0 -26,11 -23,27 26,61 42,126 42,192 0,103 -94,208 -165,283 z"
       fill="currentColor"
       id="path1913" />
  </g>
  <a
     style="color:inherit"
     xlink:href="textedit:///home/potatochup/musicforwesties/music_source/./i_got_the_blues.ly:16:4:5"
     id="a1921"
     transform="translate(-2.4151818,-3.8453125)">
    <g
       transform="translate(26.298,8.76)"
       id="g1919">
      <path
         transform="scale(0.004,-0.004)"
         d="m 163,36 119,97 c 3,2 6,3 9,3 3,0 7,-1 10,-3 l 20,-16 c 3,-3 5,-8 5,-12 0,-4 -2,-9 -5,-12 L 206,0 321,-93 c 3,-3 5,-8 5,-12 0,-4 -2,-9 -5,-12 l -20,-16 c -3,-2 -7,-3 -10,-3 -3,0 -6,1 -9,3 L 163,-36 44,-133 c -3,-2 -6,-3 -9,-3 -3,0 -7,1 -10,3 l -20,16 c -3,3 -5,8 -5,12 0,4 2,9 5,12 L 120,0 5,93 c -3,3 -5,8 -5,12 0,4 2,9 5,12 l 20,16 c 3,2 7,3 10,3 3,0 6,-1 9,-3 z"
         fill="currentColor"
         id="path1917" />
    </g>
  </a>
  <g
     transform="translate(22.554618,6.4146875)"
     id="g1925">
    <rect
       x="-0.064999998"
       y="-4.5"
       width="0.13"
       height="2.5796001"
       ry="0.039999999"
       fill="currentColor"
       id="rect1923" />
  </g>
  <g
     transform="translate(26.555418,161.26089)"
     id="g1931">
    <a
       xlink:href="https://lilypond.org/"
       id="a1929">
      <rect
         x="0"
         y="-0.48879999"
         width="61.560398"
         height="2.1603"
         fill="none"
         stroke="none"
         stroke-width="0"
         id="rect1927" />
    </a>
  </g>
  <g
     transform="translate(26.555418,161.26089)"
     id="g1937">
    <text
       font-family="serif"
       font-size="2.2001px"
       text-anchor="start"
       fill="currentColor"
       id="text1935"><tspan
         id="tspan1933">Music engraving by LilyPond 2.22.1—www.lilypond.org</tspan></text>
  </g>
</svg>
