<?xml version="1.0" encoding="UTF-8" standalone="no"?>
<svg
   version="1.2"
   width="72.050156mm"
   height="23.61245mm"
   viewBox="0 0 41.000518 13.436788"
   id="svg2149"
   sodipodi:docname="josephene.svg"
   inkscape:version="1.1.2 (0a00cf5339, 2022-02-04)"
   xmlns:inkscape="http://www.inkscape.org/namespaces/inkscape"
   xmlns:sodipodi="http://sodipodi.sourceforge.net/DTD/sodipodi-0.dtd"
   xmlns:xlink="http://www.w3.org/1999/xlink"
   xmlns="http://www.w3.org/2000/svg"
   xmlns:svg="http://www.w3.org/2000/svg">
  <defs
     id="defs2153" />
  <sodipodi:namedview
     id="namedview2151"
     pagecolor="#ffffff"
     bordercolor="#666666"
     borderopacity="1.0"
     inkscape:pageshadow="2"
     inkscape:pageopacity="0.0"
     inkscape:pagecheckerboard="0"
     inkscape:document-units="mm"
     showgrid="false"
     inkscape:zoom="0.64052329"
     inkscape:cx="381.71914"
     inkscape:cy="286.48451"
     inkscape:window-width="1128"
     inkscape:window-height="688"
     inkscape:window-x="0"
     inkscape:window-y="0"
     inkscape:window-maximized="1"
     inkscape:current-layer="svg2149" />
  <style
     type="text/css"
     id="style1945"><![CDATA[
tspan { white-space: pre; }
]]></style>
  <!-- Page: 1/1 -->
  <g
     transform="translate(11.811218,9.4146875)"
     id="g1949">
    <line
       stroke-linejoin="round"
       stroke-linecap="round"
       stroke-width="0.1"
       stroke="currentColor"
       x1="0.050000001"
       y1="0"
       x2="29.139299"
       y2="0"
       id="line1947" />
  </g>
  <g
     transform="translate(11.811218,8.4146875)"
     id="g1953">
    <line
       stroke-linejoin="round"
       stroke-linecap="round"
       stroke-width="0.1"
       stroke="currentColor"
       x1="0.050000001"
       y1="0"
       x2="29.139299"
       y2="0"
       id="line1951" />
  </g>
  <g
     transform="translate(11.811218,7.4146875)"
     id="g1957">
    <line
       stroke-linejoin="round"
       stroke-linecap="round"
       stroke-width="0.1"
       stroke="currentColor"
       x1="0.050000001"
       y1="0"
       x2="29.139299"
       y2="0"
       id="line1955" />
  </g>
  <g
     transform="translate(11.811218,6.4146875)"
     id="g1961">
    <line
       stroke-linejoin="round"
       stroke-linecap="round"
       stroke-width="0.1"
       stroke="currentColor"
       x1="0.050000001"
       y1="0"
       x2="29.139299"
       y2="0"
       id="line1959" />
  </g>
  <g
     transform="translate(11.811218,5.4146875)"
     id="g1965">
    <line
       stroke-linejoin="round"
       stroke-linecap="round"
       stroke-width="0.1"
       stroke="currentColor"
       x1="0.050000001"
       y1="0"
       x2="29.139299"
       y2="0"
       id="line1963" />
  </g>
  <g
     transform="translate(40.810518,7.4146875)"
     id="g1969">
    <rect
       x="0"
       y="-2"
       width="0.19"
       height="4"
       ry="0.0000"
       fill="currentColor"
       id="rect1967" />
  </g>
  <a
     style="color:inherit"
     xlink:href="textedit:///home/potatochup/musicforwesties/music_source/./josephene.ly:20:25:26"
     id="a1975"
     transform="translate(-2.4151818,-3.8453125)">
    <g
       transform="translate(26.9368,8.26)"
       id="g1973">
      <path
         transform="scale(0.004,-0.004)"
         d="M 72,-250 189,76 C 155,64 120,54 84,54 38,54 -3,87 -3,133 c 0,40 33,72 73,72 25,0 48,-15 56,-39 10,-28 6,-59 35,-59 16,0 54,48 61,63 6,12 23,12 28,0 L 127,-250 c -8,-7 -17,-10 -27,-10 -10,0 -20,3 -28,10 z"
         fill="currentColor"
         id="path1971" />
    </g>
  </a>
  <g
     transform="translate(29.225818,1.9546875)"
     id="g1979">
    <path
       transform="scale(0.004,-0.004)"
       d="M 0,0 V -250 H -16 V 0 Z m 0,0 c 0,-197 207,-336 207,-533 0,-71 -15,-141 -41,-207 -5,-8 -13,-12 -20,-12 -13,0 -26,11 -23,27 26,61 42,126 42,192 0,103 -94,208 -165,283 z"
       fill="currentColor"
       id="path1977" />
  </g>
  <g
     transform="translate(29.160818,7.4146875)"
     id="g1983">
    <rect
       x="-0.064999998"
       y="-5.5"
       width="0.13"
       height="2.8139"
       ry="0.039999999"
       fill="currentColor"
       id="rect1981" />
  </g>
  <a
     style="color:inherit"
     xlink:href="textedit:///home/potatochup/musicforwesties/music_source/./josephene.ly:20:28:29"
     id="a1989"
     transform="translate(-2.4151818,-3.8453125)">
    <g
       transform="translate(30.3368,8.76)"
       id="g1987">
      <path
         transform="scale(0.004,-0.004)"
         d="m 218,136 c 55,0 108,-28 108,-89 0,-71 -55,-121 -102,-149 -35,-21 -75,-34 -116,-34 -55,0 -108,28 -108,89 0,71 55,121 102,149 35,21 75,34 116,34 z"
         fill="currentColor"
         id="path1985" />
    </g>
  </a>
  <a
     style="color:inherit"
     xlink:href="textedit:///home/potatochup/musicforwesties/music_source/./josephene.ly:20:31:32"
     id="a1997"
     transform="translate(-2.4151818,-3.8453125)">
    <g
       transform="translate(30.3368,5.3)"
       id="g1995">
      <text
         font-family="serif"
         font-size="1.96px"
         text-anchor="start"
         fill="currentColor"
         id="text1993"><tspan
           id="tspan1991">&amp;</tspan></text>
    </g>
  </a>
  <g
     transform="translate(24.586618,7.4146875)"
     id="g2001">
    <rect
       x="-0.064999998"
       y="-0.31389999"
       width="0.13"
       height="3.3139"
       ry="0.039999999"
       fill="currentColor"
       id="rect1999" />
  </g>
  <a
     style="color:inherit"
     xlink:href="textedit:///home/potatochup/musicforwesties/music_source/./josephene.ly:15:2:3"
     id="a2007"
     transform="translate(-2.4151818,-3.8453125)">
    <g
       transform="translate(26.9368,10.76)"
       id="g2005">
      <path
         transform="scale(0.004,-0.004)"
         d="m 218,136 c 55,0 108,-28 108,-89 0,-71 -55,-121 -102,-149 -35,-21 -75,-34 -116,-34 -55,0 -108,28 -108,89 0,71 55,121 102,149 35,21 75,34 116,34 z"
         fill="currentColor"
         id="path2003" />
    </g>
  </a>
  <a
     style="color:inherit"
     xlink:href="textedit:///home/potatochup/musicforwesties/music_source/./josephene.ly:15:8:9"
     id="a2015"
     transform="translate(-2.4151818,-3.8453125)">
    <g
       transform="translate(26.9368,16.1267)"
       id="g2013">
      <text
         font-family="serif"
         font-size="1.96px"
         text-anchor="start"
         fill="currentColor"
         id="text2011"><tspan
           id="tspan2009">2</tspan></text>
    </g>
  </a>
  <g
     transform="translate(18.785418,2.2246875)"
     id="g2019">
    <polygon
       stroke-linejoin="round"
       stroke-linecap="round"
       stroke-width="0.08"
       fill="currentColor"
       stroke="currentColor"
       points="0.04,0.2 0.04,-0.2 4.4962,-0.2 4.4962,0.2 "
       id="polygon2017" />
  </g>
  <g
     transform="translate(22.156618,3.0346875)"
     id="g2023">
    <polygon
       stroke-linejoin="round"
       stroke-linecap="round"
       stroke-width="0.08"
       fill="currentColor"
       stroke="currentColor"
       points="0.04,0.2 0.04,-0.2 1.125,-0.2 1.125,0.2 "
       id="polygon2021" />
  </g>
  <a
     style="color:inherit"
     xlink:href="textedit:///home/potatochup/musicforwesties/music_source/./josephene.ly:16:2:3"
     id="a2029"
     transform="translate(-2.4151818,-3.8453125)">
    <g
       transform="translate(33.9368,13.26)"
       id="g2027">
      <path
         transform="scale(0.004,-0.004)"
         d="m -23,-116 c 0,28 11,42 40,42 33,0 78,-13 119,-31 L 4,53 c -7,9 -10,17 -10,25 0,34 50,66 87,99 25,22 37,52 37,83 0,24 -8,49 -25,69 l -35,42 c -3,3 -4,7 -4,10 0,9 9,15 17,15 4,0 8,-1 11,-5 L 233,211 c 7,-9 10,-17 10,-25 0,-34 -50,-66 -87,-99 -25,-22 -37,-52 -37,-83 0,-24 7,-49 24,-69 l 84,-99 c 3,-3 4,-7 4,-10 0,-9 -8,-16 -16,-16 -4,0 -9,2 -12,6 -18,21 -63,38 -97,38 -41,0 -53,-26 -53,-67 0,-35 11,-74 28,-94 7,-8 -5,-19 -12,-11 -45,54 -92,148 -92,202 z"
         fill="currentColor"
         id="path2025" />
    </g>
  </a>
  <g
     transform="translate(36.136618,7.4146875)"
     id="g2033">
    <rect
       x="-0.064999998"
       y="-0.31389999"
       width="0.13"
       height="3.3139"
       ry="0.039999999"
       fill="currentColor"
       id="rect2031" />
  </g>
  <a
     style="color:inherit"
     xlink:href="textedit:///home/potatochup/musicforwesties/music_source/./josephene.ly:17:2:3"
     id="a2039"
     transform="translate(-2.4151818,-3.8453125)">
    <g
       transform="translate(38.4868,10.76)"
       id="g2037">
      <path
         transform="scale(0.004,-0.004)"
         d="m 218,136 c 55,0 108,-28 108,-89 0,-71 -55,-121 -102,-149 -35,-21 -75,-34 -116,-34 -55,0 -108,28 -108,89 0,71 55,121 102,149 35,21 75,34 116,34 z"
         fill="currentColor"
         id="path2035" />
    </g>
  </a>
  <a
     style="color:inherit"
     xlink:href="textedit:///home/potatochup/musicforwesties/music_source/./josephene.ly:17:8:9"
     id="a2047"
     transform="translate(-2.4151818,-3.8453125)">
    <g
       transform="translate(38.4868,16.1267)"
       id="g2045">
      <text
         font-family="serif"
         font-size="1.96px"
         text-anchor="start"
         fill="currentColor"
         id="text2043"><tspan
           id="tspan2041">2</tspan></text>
    </g>
  </a>
  <a
     style="color:inherit"
     xlink:href="textedit:///home/potatochup/musicforwesties/music_source/./josephene.ly:16:4:5"
     id="a2055"
     transform="translate(-2.4151818,-3.8453125)">
    <g
       transform="translate(33.9368,16.3821)"
       id="g2053">
      <text
         font-family="serif"
         font-size="1.96px"
         text-anchor="start"
         fill="currentColor"
         id="text2051"><tspan
           id="tspan2049">1</tspan></text>
    </g>
  </a>
  <g
     transform="translate(11.941218,7.4146875)"
     id="g2059">
    <path
       transform="scale(0.004,-0.004)"
       d="m 490,-250 h -92 c -6,0 -10,4 -10,10 v 480 c 0,6 4,10 10,10 h 92 c 6,0 10,-4 10,-10 v -480 c 0,-6 -4,-10 -10,-10 z m -220,0 h -93 c -6,0 -10,4 -10,10 v 480 c 0,6 4,10 10,10 h 93 c 6,0 10,-4 10,-10 v -480 c 0,-6 -4,-10 -10,-10 z"
       fill="currentColor"
       id="path2057" />
  </g>
  <g
     transform="translate(17.676218,7.4146875)"
     id="g2063">
    <rect
       x="-0.064999998"
       y="1.6861"
       width="0.13"
       height="2.6472001"
       ry="0.039999999"
       fill="currentColor"
       id="rect2061" />
  </g>
  <g
     transform="translate(18.850418,7.4146875)"
     id="g2067">
    <rect
       x="-0.064999998"
       y="-5.1900001"
       width="0.13"
       height="2.5039001"
       ry="0.039999999"
       fill="currentColor"
       id="rect2065" />
  </g>
  <g
     transform="translate(19.365418,4.9146875)"
     id="g2071">
    <path
       transform="scale(0.004,-0.004)"
       d="M 0,0 C 0,31 25,56 56,56 87,56 112,31 112,0 112,-31 87,-56 56,-56 25,-56 0,-31 0,0 Z"
       fill="currentColor"
       id="path2069" />
  </g>
  <a
     style="color:inherit"
     xlink:href="textedit:///home/potatochup/musicforwesties/music_source/./josephene.ly:14:2:3"
     id="a2077"
     transform="translate(-2.4151818,-3.8453125)">
    <g
       transform="translate(20.0264,12.76)"
       id="g2075">
      <path
         transform="scale(0.004,-0.004)"
         d="m 218,136 c 55,0 108,-28 108,-89 0,-71 -55,-121 -102,-149 -35,-21 -75,-34 -116,-34 -55,0 -108,28 -108,89 0,71 55,121 102,149 35,21 75,34 116,34 z"
         fill="currentColor"
         id="path2073" />
    </g>
  </a>
  <a
     style="color:inherit"
     xlink:href="textedit:///home/potatochup/musicforwesties/music_source/./josephene.ly:14:11:12"
     id="a2085"
     transform="translate(-2.4151818,-3.8453125)">
    <g
       transform="translate(20.0264,17.2821)"
       id="g2083">
      <text
         font-family="serif"
         font-size="1.96px"
         text-anchor="start"
         fill="currentColor"
         id="text2081"><tspan
           id="tspan2079">1</tspan></text>
    </g>
  </a>
  <a
     style="color:inherit"
     xlink:href="textedit:///home/potatochup/musicforwesties/music_source/./josephene.ly:20:2:3"
     id="a2091"
     transform="translate(-2.4151818,-3.8453125)">
    <g
       transform="translate(20.0264,8.76)"
       id="g2089">
      <path
         transform="scale(0.004,-0.004)"
         d="m 218,136 c 55,0 108,-28 108,-89 0,-71 -55,-121 -102,-149 -35,-21 -75,-34 -116,-34 -55,0 -108,28 -108,89 0,71 55,121 102,149 35,21 75,34 116,34 z"
         fill="currentColor"
         id="path2087" />
    </g>
  </a>
  <a
     style="color:inherit"
     xlink:href="textedit:///home/potatochup/musicforwesties/music_source/./josephene.ly:20:6:7"
     id="a2099"
     transform="translate(-2.4151818,-3.8453125)">
    <g
       transform="translate(20.0264,5.3757)"
       id="g2097">
      <text
         font-family="serif"
         font-size="1.96px"
         text-anchor="start"
         fill="currentColor"
         id="text2095"><tspan
           id="tspan2093">1</tspan></text>
    </g>
  </a>
  <g
     transform="translate(5.4678182,5.2348875)"
     id="g2105">
    <text
       font-family="serif"
       font-size="2.2001px"
       text-anchor="start"
       fill="currentColor"
       id="text2103"><tspan
         id="tspan2101">synth</tspan></text>
  </g>
  <g
     transform="translate(5.3312182,8.2348875)"
     id="g2111">
    <text
       font-family="serif"
       font-size="2.2001px"
       text-anchor="start"
       fill="currentColor"
       id="text2109"><tspan
         id="tspan2107">snare</tspan></text>
  </g>
  <g
     transform="translate(-0.06338179,11.234888)"
     id="g2117">
    <text
       font-family="serif"
       font-size="2.2001px"
       text-anchor="start"
       fill="currentColor"
       id="text2115"><tspan
         id="tspan2113">bass drum</tspan></text>
  </g>
  <g
     transform="translate(23.256618,7.4146875)"
     id="g2121">
    <rect
       x="-0.064999998"
       y="-5.1900001"
       width="0.13"
       height="2.5039001"
       ry="0.039999999"
       fill="currentColor"
       id="rect2119" />
  </g>
  <a
     style="color:inherit"
     xlink:href="textedit:///home/potatochup/musicforwesties/music_source/./josephene.ly:20:14:15"
     id="a2127"
     transform="translate(-2.4151818,-3.8453125)">
    <g
       transform="translate(24.4325,8.76)"
       id="g2125">
      <path
         transform="scale(0.004,-0.004)"
         d="m 218,136 c 55,0 108,-28 108,-89 0,-71 -55,-121 -102,-149 -35,-21 -75,-34 -116,-34 -55,0 -108,28 -108,89 0,71 55,121 102,149 35,21 75,34 116,34 z"
         fill="currentColor"
         id="path2123" />
    </g>
  </a>
  <a
     style="color:inherit"
     xlink:href="textedit:///home/potatochup/musicforwesties/music_source/./josephene.ly:20:18:19"
     id="a2135"
     transform="translate(-2.4151818,-3.8453125)">
    <g
       transform="translate(24.4325,5.3422)"
       id="g2133">
      <text
         font-family="serif"
         font-size="1.96px"
         text-anchor="start"
         fill="currentColor"
         id="text2131"><tspan
           id="tspan2129">a</tspan></text>
    </g>
  </a>
  <g
     transform="translate(26.555418,161.26089)"
     id="g2141">
    <a
       xlink:href="https://lilypond.org/"
       id="a2139">
      <rect
         x="0"
         y="-0.48879999"
         width="61.560398"
         height="2.1603"
         fill="none"
         stroke="none"
         stroke-width="0"
         id="rect2137" />
    </a>
  </g>
  <g
     transform="translate(26.555418,161.26089)"
     id="g2147">
    <text
       font-family="serif"
       font-size="2.2001px"
       text-anchor="start"
       fill="currentColor"
       id="text2145"><tspan
         id="tspan2143">Music engraving by LilyPond 2.22.1—www.lilypond.org</tspan></text>
  </g>
</svg>
