<?xml version="1.0" encoding="UTF-8" standalone="no"?>
<svg
   version="1.2"
   width="52.448193mm"
   height="17.423067mm"
   viewBox="0 0 29.845919 9.9146873"
   id="svg2501"
   sodipodi:docname="maps.svg"
   inkscape:version="1.1.2 (0a00cf5339, 2022-02-04)"
   xmlns:inkscape="http://www.inkscape.org/namespaces/inkscape"
   xmlns:sodipodi="http://sodipodi.sourceforge.net/DTD/sodipodi-0.dtd"
   xmlns:xlink="http://www.w3.org/1999/xlink"
   xmlns="http://www.w3.org/2000/svg"
   xmlns:svg="http://www.w3.org/2000/svg">
  <defs
     id="defs2505" />
  <sodipodi:namedview
     id="namedview2503"
     pagecolor="#ffffff"
     bordercolor="#666666"
     borderopacity="1.0"
     inkscape:pageshadow="2"
     inkscape:pageopacity="0.0"
     inkscape:pagecheckerboard="0"
     inkscape:document-units="mm"
     showgrid="false"
     inkscape:zoom="0.64052329"
     inkscape:cx="381.71914"
     inkscape:cy="36.688752"
     inkscape:window-width="1128"
     inkscape:window-height="688"
     inkscape:window-x="0"
     inkscape:window-y="0"
     inkscape:window-maximized="1"
     inkscape:current-layer="svg2501" />
  <style
     type="text/css"
     id="style2335"><![CDATA[
tspan { white-space: pre; }
]]></style>
  <!-- Page: 1/1 -->
  <g
     transform="translate(11.811218,7.5813875)"
     id="g2339">
    <line
       stroke-linejoin="round"
       stroke-linecap="round"
       stroke-width="0.1"
       stroke="currentColor"
       x1="0.050000001"
       y1="0"
       x2="17.984699"
       y2="0"
       id="line2337" />
  </g>
  <g
     transform="translate(11.811218,6.5813875)"
     id="g2343">
    <line
       stroke-linejoin="round"
       stroke-linecap="round"
       stroke-width="0.1"
       stroke="currentColor"
       x1="0.050000001"
       y1="0"
       x2="17.984699"
       y2="0"
       id="line2341" />
  </g>
  <g
     transform="translate(11.811218,5.5813875)"
     id="g2347">
    <line
       stroke-linejoin="round"
       stroke-linecap="round"
       stroke-width="0.1"
       stroke="currentColor"
       x1="0.050000001"
       y1="0"
       x2="17.984699"
       y2="0"
       id="line2345" />
  </g>
  <g
     transform="translate(11.811218,4.5813875)"
     id="g2351">
    <line
       stroke-linejoin="round"
       stroke-linecap="round"
       stroke-width="0.1"
       stroke="currentColor"
       x1="0.050000001"
       y1="0"
       x2="17.984699"
       y2="0"
       id="line2349" />
  </g>
  <g
     transform="translate(11.811218,3.5813875)"
     id="g2355">
    <line
       stroke-linejoin="round"
       stroke-linecap="round"
       stroke-width="0.1"
       stroke="currentColor"
       x1="0.050000001"
       y1="0"
       x2="17.984699"
       y2="0"
       id="line2353" />
  </g>
  <g
     transform="translate(29.655918,5.5813875)"
     id="g2359">
    <rect
       x="0"
       y="-2"
       width="0.19"
       height="4"
       ry="0.0000"
       fill="currentColor"
       id="rect2357" />
  </g>
  <a
     style="color:inherit"
     xlink:href="textedit:///home/potatochup/musicforwesties/music_source/./maps.ly:16:2:3"
     id="a2365"
     transform="translate(-2.4151818,-3.8453125)">
    <g
       transform="translate(29.0331,8.9267)"
       id="g2363">
      <path
         transform="scale(0.004,-0.004)"
         d="m 218,136 c 55,0 108,-28 108,-89 0,-71 -55,-121 -102,-149 -35,-21 -75,-34 -116,-34 -55,0 -108,28 -108,89 0,71 55,121 102,149 35,21 75,34 116,34 z"
         fill="currentColor"
         id="path2361" />
    </g>
  </a>
  <a
     style="color:inherit"
     xlink:href="textedit:///home/potatochup/musicforwesties/music_source/./maps.ly:16:8:9"
     id="a2373"
     transform="translate(-2.4151818,-3.8453125)">
    <g
       transform="translate(29.0331,5.3)"
       id="g2371">
      <text
         font-family="serif"
         font-size="1.96px"
         text-anchor="start"
         fill="currentColor"
         id="text2369"><tspan
           id="tspan2367">4</tspan></text>
    </g>
  </a>
  <g
     transform="translate(23.680718,5.5813875)"
     id="g2377">
    <rect
       x="-0.064999998"
       y="1.6861"
       width="0.13"
       height="2.6472001"
       ry="0.039999999"
       fill="currentColor"
       id="rect2375" />
  </g>
  <g
     transform="translate(24.854918,5.5813875)"
     id="g2381">
    <rect
       x="-0.064999998"
       y="-3.6666999"
       width="0.13"
       height="2.9806001"
       ry="0.039999999"
       fill="currentColor"
       id="rect2379" />
  </g>
  <a
     style="color:inherit"
     xlink:href="textedit:///home/potatochup/musicforwesties/music_source/./maps.ly:19:22:23"
     id="a2387"
     transform="translate(-2.4151818,-3.8453125)">
    <g
       transform="translate(26.0309,10.9267)"
       id="g2385">
      <path
         transform="scale(0.004,-0.004)"
         d="m 218,136 c 55,0 108,-28 108,-89 0,-71 -55,-121 -102,-149 -35,-21 -75,-34 -116,-34 -55,0 -108,28 -108,89 0,71 55,121 102,149 35,21 75,34 116,34 z"
         fill="currentColor"
         id="path2383" />
    </g>
  </a>
  <a
     style="color:inherit"
     xlink:href="textedit:///home/potatochup/musicforwesties/music_source/./maps.ly:15:2:3"
     id="a2393"
     transform="translate(-2.4151818,-3.8453125)">
    <g
       transform="translate(26.0309,8.9267)"
       id="g2391">
      <path
         transform="scale(0.004,-0.004)"
         d="m 218,136 c 55,0 108,-28 108,-89 0,-71 -55,-121 -102,-149 -35,-21 -75,-34 -116,-34 -55,0 -108,28 -108,89 0,71 55,121 102,149 35,21 75,34 116,34 z"
         fill="currentColor"
         id="path2389" />
    </g>
  </a>
  <a
     style="color:inherit"
     xlink:href="textedit:///home/potatochup/musicforwesties/music_source/./maps.ly:15:8:9"
     id="a2401"
     transform="translate(-2.4151818,-3.8453125)">
    <g
       transform="translate(26.0309,5.3861)"
       id="g2399">
      <text
         font-family="serif"
         font-size="1.96px"
         text-anchor="start"
         fill="currentColor"
         id="text2397"><tspan
           id="tspan2395">3</tspan></text>
    </g>
  </a>
  <a
     style="color:inherit"
     xlink:href="textedit:///home/potatochup/musicforwesties/music_source/./maps.ly:19:32:33"
     id="a2407"
     transform="translate(-2.4151818,-3.8453125)">
    <g
       transform="translate(29.0331,10.9267)"
       id="g2405">
      <path
         transform="scale(0.004,-0.004)"
         d="m 218,136 c 55,0 108,-28 108,-89 0,-71 -55,-121 -102,-149 -35,-21 -75,-34 -116,-34 -55,0 -108,28 -108,89 0,71 55,121 102,149 35,21 75,34 116,34 z"
         fill="currentColor"
         id="path2403" />
    </g>
  </a>
  <g
     transform="translate(26.682918,5.5813875)"
     id="g2411">
    <rect
       x="-0.064999998"
       y="1.6861"
       width="0.13"
       height="2.6472001"
       ry="0.039999999"
       fill="currentColor"
       id="rect2409" />
  </g>
  <g
     transform="translate(27.857218,5.5813875)"
     id="g2415">
    <rect
       x="-0.064999998"
       y="-3.6666999"
       width="0.13"
       height="2.9806001"
       ry="0.039999999"
       fill="currentColor"
       id="rect2413" />
  </g>
  <g
     transform="translate(11.941218,5.5813875)"
     id="g2419">
    <path
       transform="scale(0.004,-0.004)"
       d="m 490,-250 h -92 c -6,0 -10,4 -10,10 v 480 c 0,6 4,10 10,10 h 92 c 6,0 10,-4 10,-10 v -480 c 0,-6 -4,-10 -10,-10 z m -220,0 h -93 c -6,0 -10,4 -10,10 v 480 c 0,6 4,10 10,10 h 93 c 6,0 10,-4 10,-10 v -480 c 0,-6 -4,-10 -10,-10 z"
       fill="currentColor"
       id="path2417" />
  </g>
  <g
     transform="translate(17.676218,5.5813875)"
     id="g2423">
    <rect
       x="-0.064999998"
       y="1.6861"
       width="0.13"
       height="2.6472001"
       ry="0.039999999"
       fill="currentColor"
       id="rect2421" />
  </g>
  <g
     transform="translate(18.850418,5.5813875)"
     id="g2427">
    <rect
       x="-0.064999998"
       y="-3.6666999"
       width="0.13"
       height="2.9806001"
       ry="0.039999999"
       fill="currentColor"
       id="rect2425" />
  </g>
  <a
     style="color:inherit"
     xlink:href="textedit:///home/potatochup/musicforwesties/music_source/./maps.ly:19:2:3"
     id="a2433"
     transform="translate(-2.4151818,-3.8453125)">
    <g
       transform="translate(20.0264,10.9267)"
       id="g2431">
      <path
         transform="scale(0.004,-0.004)"
         d="m 218,136 c 55,0 108,-28 108,-89 0,-71 -55,-121 -102,-149 -35,-21 -75,-34 -116,-34 -55,0 -108,28 -108,89 0,71 55,121 102,149 35,21 75,34 116,34 z"
         fill="currentColor"
         id="path2429" />
    </g>
  </a>
  <a
     style="color:inherit"
     xlink:href="textedit:///home/potatochup/musicforwesties/music_source/./maps.ly:13:2:3"
     id="a2439"
     transform="translate(-2.4151818,-3.8453125)">
    <g
       transform="translate(20.0264,8.9267)"
       id="g2437">
      <path
         transform="scale(0.004,-0.004)"
         d="m 218,136 c 55,0 108,-28 108,-89 0,-71 -55,-121 -102,-149 -35,-21 -75,-34 -116,-34 -55,0 -108,28 -108,89 0,71 55,121 102,149 35,21 75,34 116,34 z"
         fill="currentColor"
         id="path2435" />
    </g>
  </a>
  <a
     style="color:inherit"
     xlink:href="textedit:///home/potatochup/musicforwesties/music_source/./maps.ly:13:8:9"
     id="a2447"
     transform="translate(-2.4151818,-3.8453125)">
    <g
       transform="translate(20.0264,5.3057)"
       id="g2445">
      <text
         font-family="serif"
         font-size="1.96px"
         text-anchor="start"
         fill="currentColor"
         id="text2443"><tspan
           id="tspan2441">1</tspan></text>
    </g>
  </a>
  <g
     transform="translate(5.3312182,4.6522875)"
     id="g2453">
    <text
       font-family="serif"
       font-size="2.2001px"
       text-anchor="start"
       fill="currentColor"
       id="text2451"><tspan
         id="tspan2449">snare</tspan></text>
  </g>
  <g
     transform="translate(-0.06338179,7.6522875)"
     id="g2459">
    <text
       font-family="serif"
       font-size="2.2001px"
       text-anchor="start"
       fill="currentColor"
       id="text2457"><tspan
         id="tspan2455">bass drum</tspan></text>
  </g>
  <a
     style="color:inherit"
     xlink:href="textedit:///home/potatochup/musicforwesties/music_source/./maps.ly:14:2:3"
     id="a2465"
     transform="translate(-2.4151818,-3.8453125)">
    <g
       transform="translate(23.0286,8.9267)"
       id="g2463">
      <path
         transform="scale(0.004,-0.004)"
         d="m 218,136 c 55,0 108,-28 108,-89 0,-71 -55,-121 -102,-149 -35,-21 -75,-34 -116,-34 -55,0 -108,28 -108,89 0,71 55,121 102,149 35,21 75,34 116,34 z"
         fill="currentColor"
         id="path2461" />
    </g>
  </a>
  <g
     transform="translate(20.678418,5.5813875)"
     id="g2469">
    <rect
       x="-0.064999998"
       y="1.6861"
       width="0.13"
       height="2.6472001"
       ry="0.039999999"
       fill="currentColor"
       id="rect2467" />
  </g>
  <g
     transform="translate(21.852618,5.5813875)"
     id="g2473">
    <rect
       x="-0.064999998"
       y="-3.6666999"
       width="0.13"
       height="2.9806001"
       ry="0.039999999"
       fill="currentColor"
       id="rect2471" />
  </g>
  <a
     style="color:inherit"
     xlink:href="textedit:///home/potatochup/musicforwesties/music_source/./maps.ly:19:12:13"
     id="a2479"
     transform="translate(-2.4151818,-3.8453125)">
    <g
       transform="translate(23.0286,10.9267)"
       id="g2477">
      <path
         transform="scale(0.004,-0.004)"
         d="m 218,136 c 55,0 108,-28 108,-89 0,-71 -55,-121 -102,-149 -35,-21 -75,-34 -116,-34 -55,0 -108,28 -108,89 0,71 55,121 102,149 35,21 75,34 116,34 z"
         fill="currentColor"
         id="path2475" />
    </g>
  </a>
  <a
     style="color:inherit"
     xlink:href="textedit:///home/potatochup/musicforwesties/music_source/./maps.ly:14:8:9"
     id="a2487"
     transform="translate(-2.4151818,-3.8453125)">
    <g
       transform="translate(23.0286,5.3)"
       id="g2485">
      <text
         font-family="serif"
         font-size="1.96px"
         text-anchor="start"
         fill="currentColor"
         id="text2483"><tspan
           id="tspan2481">2</tspan></text>
    </g>
  </a>
  <g
     transform="translate(26.555418,161.26089)"
     id="g2493">
    <a
       xlink:href="https://lilypond.org/"
       id="a2491">
      <rect
         x="0"
         y="-0.48879999"
         width="61.560398"
         height="2.1603"
         fill="none"
         stroke="none"
         stroke-width="0"
         id="rect2489" />
    </a>
  </g>
  <g
     transform="translate(26.555418,161.26089)"
     id="g2499">
    <text
       font-family="serif"
       font-size="2.2001px"
       text-anchor="start"
       fill="currentColor"
       id="text2497"><tspan
         id="tspan2495">Music engraving by LilyPond 2.22.1—www.lilypond.org</tspan></text>
  </g>
</svg>
