<?xml version="1.0" encoding="UTF-8" standalone="no"?>
<svg
   version="1.2"
   width="34.820171mm"
   height="12.397193mm"
   viewBox="0 0 19.814601 7.0546874"
   id="svg1657"
   sodipodi:docname="shape-of-you.svg"
   inkscape:version="1.1.2 (0a00cf5339, 2022-02-04)"
   xmlns:inkscape="http://www.inkscape.org/namespaces/inkscape"
   xmlns:sodipodi="http://sodipodi.sourceforge.net/DTD/sodipodi-0.dtd"
   xmlns:xlink="http://www.w3.org/1999/xlink"
   xmlns="http://www.w3.org/2000/svg"
   xmlns:svg="http://www.w3.org/2000/svg">
  <defs
     id="defs1661" />
  <sodipodi:namedview
     id="namedview1659"
     pagecolor="#ffffff"
     bordercolor="#666666"
     borderopacity="1.0"
     inkscape:pageshadow="2"
     inkscape:pageopacity="0.0"
     inkscape:pagecheckerboard="0"
     inkscape:document-units="mm"
     showgrid="false"
     inkscape:zoom="3.6203867"
     inkscape:cx="75.268203"
     inkscape:cy="25.273543"
     inkscape:window-width="1128"
     inkscape:window-height="688"
     inkscape:window-x="0"
     inkscape:window-y="0"
     inkscape:window-maximized="1"
     inkscape:current-layer="svg1657" />
  <style
     type="text/css"
     id="style1535"><![CDATA[
tspan { white-space: pre; }
]]></style>
  <!-- Page: 1/1 -->
  <g
     transform="translate(0,6.0046875)"
     id="g1539">
    <line
       stroke-linejoin="round"
       stroke-linecap="round"
       stroke-width="0.1"
       stroke="currentColor"
       x1="0.050000001"
       y1="0"
       x2="19.764601"
       y2="0"
       id="line1537" />
  </g>
  <g
     transform="translate(0,5.0046875)"
     id="g1543">
    <line
       stroke-linejoin="round"
       stroke-linecap="round"
       stroke-width="0.1"
       stroke="currentColor"
       x1="0.050000001"
       y1="0"
       x2="19.764601"
       y2="0"
       id="line1541" />
  </g>
  <g
     transform="translate(0,4.0046875)"
     id="g1547">
    <line
       stroke-linejoin="round"
       stroke-linecap="round"
       stroke-width="0.1"
       stroke="currentColor"
       x1="0.050000001"
       y1="0"
       x2="19.764601"
       y2="0"
       id="line1545" />
  </g>
  <g
     transform="translate(0,3.0046875)"
     id="g1551">
    <line
       stroke-linejoin="round"
       stroke-linecap="round"
       stroke-width="0.1"
       stroke="currentColor"
       x1="0.050000001"
       y1="0"
       x2="19.764601"
       y2="0"
       id="line1549" />
  </g>
  <g
     transform="translate(0,2.0046875)"
     id="g1555">
    <line
       stroke-linejoin="round"
       stroke-linecap="round"
       stroke-width="0.1"
       stroke="currentColor"
       x1="0.050000001"
       y1="0"
       x2="19.764601"
       y2="0"
       id="line1553" />
  </g>
  <g
     transform="translate(9.1711,6.0046875)"
     id="g1559">
    <polygon
       stroke-linejoin="round"
       stroke-linecap="round"
       stroke-width="0.08"
       fill="currentColor"
       stroke="currentColor"
       points="0.04,0.2 0.04,-0.2 1.125,-0.2 1.125,0.2 "
       id="polygon1557" />
  </g>
  <g
     transform="translate(5.8,6.8146875)"
     id="g1563">
    <polygon
       stroke-linejoin="round"
       stroke-linecap="round"
       stroke-width="0.08"
       fill="currentColor"
       stroke="currentColor"
       points="0.04,0.2 0.04,-0.2 4.4962,-0.2 4.4962,0.2 "
       id="polygon1561" />
  </g>
  <a
     style="color:inherit"
     xlink:href="textedit:///home/potatochup/musicforwesties/music_source/./shape-of-you.ly:20:24:25"
     id="a1571"
     transform="translate(-14.2264,-3.8453125)">
    <g
       transform="translate(24.4325,5.3)"
       id="g1569">
      <text
         font-family="serif"
         font-size="1.96px"
         text-anchor="start"
         fill="currentColor"
         id="text1567"><tspan
           id="tspan1565">a</tspan></text>
    </g>
  </a>
  <a
     style="color:inherit"
     xlink:href="textedit:///home/potatochup/musicforwesties/music_source/./shape-of-you.ly:20:17:18"
     id="a1577"
     transform="translate(-14.2264,-3.8453125)">
    <g
       transform="translate(24.4325,7.35)"
       id="g1575">
      <path
         transform="scale(0.004,-0.004)"
         d="m 218,136 c 55,0 108,-28 108,-89 0,-71 -55,-121 -102,-149 -35,-21 -75,-34 -116,-34 -55,0 -108,28 -108,89 0,71 55,121 102,149 35,21 75,34 116,34 z"
         fill="currentColor"
         id="path1573" />
    </g>
  </a>
  <g
     transform="translate(10.2711,4.0046875)"
     id="g1581">
    <rect
       x="-0.064999998"
       y="-0.31389999"
       width="0.13"
       height="3.1238999"
       ry="0.039999999"
       fill="currentColor"
       id="rect1579" />
  </g>
  <a
     style="color:inherit"
     xlink:href="textedit:///home/potatochup/musicforwesties/music_source/./shape-of-you.ly:20:31:32"
     id="a1587"
     transform="translate(-14.2264,-3.8453125)">
    <g
       transform="translate(26.9368,9.85)"
       id="g1585">
      <path
         transform="scale(0.004,-0.004)"
         d="M 72,-250 189,76 C 155,64 120,54 84,54 38,54 -3,87 -3,133 c 0,40 33,72 73,72 25,0 48,-15 56,-39 10,-28 6,-59 35,-59 16,0 54,48 61,63 6,12 23,12 28,0 L 127,-250 c -8,-7 -17,-10 -27,-10 -10,0 -20,3 -28,10 z"
         fill="currentColor"
         id="path1583" />
    </g>
  </a>
  <a
     style="color:inherit"
     xlink:href="textedit:///home/potatochup/musicforwesties/music_source/./shape-of-you.ly:20:33:34"
     id="a1595"
     transform="translate(-14.2264,-3.8453125)">
    <g
       transform="translate(26.9368,5.3)"
       id="g1593">
      <text
         font-family="serif"
         font-size="1.96px"
         text-anchor="start"
         fill="currentColor"
         id="text1591"><tspan
           id="tspan1589">2</tspan></text>
    </g>
  </a>
  <a
     style="color:inherit"
     xlink:href="textedit:///home/potatochup/musicforwesties/music_source/./shape-of-you.ly:20:47:48"
     id="a1603"
     transform="translate(-14.2264,-3.8453125)">
    <g
       transform="translate(30.3368,5.3)"
       id="g1601">
      <text
         font-family="serif"
         font-size="1.96px"
         text-anchor="start"
         fill="currentColor"
         id="text1599"><tspan
           id="tspan1597">&amp;</tspan></text>
    </g>
  </a>
  <a
     style="color:inherit"
     xlink:href="textedit:///home/potatochup/musicforwesties/music_source/./shape-of-you.ly:20:41:42"
     id="a1609"
     transform="translate(-14.2264,-3.8453125)">
    <g
       transform="translate(30.3368,7.35)"
       id="g1607">
      <path
         transform="scale(0.004,-0.004)"
         d="m 218,136 c 55,0 108,-28 108,-89 0,-71 -55,-121 -102,-149 -35,-21 -75,-34 -116,-34 -55,0 -108,28 -108,89 0,71 55,121 102,149 35,21 75,34 116,34 z"
         fill="currentColor"
         id="path1605" />
    </g>
  </a>
  <g
     transform="translate(16.1754,4.0046875)"
     id="g1613">
    <rect
       x="-0.064999998"
       y="-0.31389999"
       width="0.13"
       height="3.3139"
       ry="0.039999999"
       fill="currentColor"
       id="rect1611" />
  </g>
  <g
     transform="translate(16.2404,6.9646875)"
     id="g1617">
    <path
       transform="scale(0.004,-0.004)"
       d="M 0,0 H -16 V 250 H 0 Z m 0,0 v 250 c 97,59 224,148 224,259 0,57 -15,112 -40,163 -3,16 10,27 23,27 7,0 15,-3 20,-11 25,-56 40,-117 40,-179 C 267,306 0,203 0,0 Z"
       fill="currentColor"
       id="path1615" />
  </g>
  <g
     transform="translate(7.5542,3.5046875)"
     id="g1621">
    <path
       transform="scale(0.004,-0.004)"
       d="M 0,0 C 0,31 25,56 56,56 87,56 112,31 112,0 112,-31 87,-56 56,-56 25,-56 0,-31 0,0 Z"
       fill="currentColor"
       id="path1619" />
  </g>
  <a
     style="color:inherit"
     xlink:href="textedit:///home/potatochup/musicforwesties/music_source/./shape-of-you.ly:20:9:10"
     id="a1629"
     transform="translate(-14.2264,-3.8453125)">
    <g
       transform="translate(20.0264,5.3)"
       id="g1627">
      <text
         font-family="serif"
         font-size="1.96px"
         text-anchor="start"
         fill="currentColor"
         id="text1625"><tspan
           id="tspan1623">1</tspan></text>
    </g>
  </a>
  <a
     style="color:inherit"
     xlink:href="textedit:///home/potatochup/musicforwesties/music_source/./shape-of-you.ly:20:2:3"
     id="a1635"
     transform="translate(-14.2264,-3.8453125)">
    <g
       transform="translate(20.0264,7.35)"
       id="g1633">
      <path
         transform="scale(0.004,-0.004)"
         d="m 218,136 c 55,0 108,-28 108,-89 0,-71 -55,-121 -102,-149 -35,-21 -75,-34 -116,-34 -55,0 -108,28 -108,89 0,71 55,121 102,149 35,21 75,34 116,34 z"
         fill="currentColor"
         id="path1631" />
    </g>
  </a>
  <g
     transform="translate(0.13,4.0046875)"
     id="g1639">
    <path
       transform="scale(0.004,-0.004)"
       d="m 490,-250 h -92 c -6,0 -10,4 -10,10 v 480 c 0,6 4,10 10,10 h 92 c 6,0 10,-4 10,-10 v -480 c 0,-6 -4,-10 -10,-10 z m -220,0 h -93 c -6,0 -10,4 -10,10 v 480 c 0,6 4,10 10,10 h 93 c 6,0 10,-4 10,-10 v -480 c 0,-6 -4,-10 -10,-10 z"
       fill="currentColor"
       id="path1637" />
  </g>
  <g
     transform="translate(5.865,4.0046875)"
     id="g1643">
    <rect
       x="-0.064999998"
       y="-0.31389999"
       width="0.13"
       height="3.1238999"
       ry="0.039999999"
       fill="currentColor"
       id="rect1641" />
  </g>
</svg>
