<?xml version="1.0" encoding="UTF-8" standalone="no"?>
<svg
   version="1.2"
   width="51.7593mm"
   height="12.397193mm"
   viewBox="0 0 29.453901 7.0546874"
   id="svg2329"
   sodipodi:docname="shape-of-you-acoustic.svg"
   inkscape:version="1.1.2 (0a00cf5339, 2022-02-04)"
   xmlns:inkscape="http://www.inkscape.org/namespaces/inkscape"
   xmlns:sodipodi="http://sodipodi.sourceforge.net/DTD/sodipodi-0.dtd"
   xmlns:xlink="http://www.w3.org/1999/xlink"
   xmlns="http://www.w3.org/2000/svg"
   xmlns:svg="http://www.w3.org/2000/svg">
  <defs
     id="defs2333" />
  <sodipodi:namedview
     id="namedview2331"
     pagecolor="#ffffff"
     bordercolor="#666666"
     borderopacity="1.0"
     inkscape:pageshadow="2"
     inkscape:pageopacity="0.0"
     inkscape:pagecheckerboard="0"
     inkscape:document-units="mm"
     showgrid="false"
     inkscape:zoom="0.64052329"
     inkscape:cx="302.09674"
     inkscape:cy="36.688752"
     inkscape:window-width="1128"
     inkscape:window-height="688"
     inkscape:window-x="0"
     inkscape:window-y="0"
     inkscape:window-maximized="1"
     inkscape:current-layer="svg2329" />
  <style
     type="text/css"
     id="style2155"><![CDATA[
tspan { white-space: pre; }
]]></style>
  <!-- Page: 1/1 -->
  <g
     transform="translate(0,6.0046875)"
     id="g2159">
    <line
       stroke-linejoin="round"
       stroke-linecap="round"
       stroke-width="0.1"
       stroke="currentColor"
       x1="0.050000001"
       y1="0"
       x2="29.4039"
       y2="0"
       id="line2157" />
  </g>
  <g
     transform="translate(0,5.0046875)"
     id="g2163">
    <line
       stroke-linejoin="round"
       stroke-linecap="round"
       stroke-width="0.1"
       stroke="currentColor"
       x1="0.050000001"
       y1="0"
       x2="29.4039"
       y2="0"
       id="line2161" />
  </g>
  <g
     transform="translate(0,4.0046875)"
     id="g2167">
    <line
       stroke-linejoin="round"
       stroke-linecap="round"
       stroke-width="0.1"
       stroke="currentColor"
       x1="0.050000001"
       y1="0"
       x2="29.4039"
       y2="0"
       id="line2165" />
  </g>
  <g
     transform="translate(0,3.0046875)"
     id="g2171">
    <line
       stroke-linejoin="round"
       stroke-linecap="round"
       stroke-width="0.1"
       stroke="currentColor"
       x1="0.050000001"
       y1="0"
       x2="29.4039"
       y2="0"
       id="line2169" />
  </g>
  <g
     transform="translate(0,2.0046875)"
     id="g2175">
    <line
       stroke-linejoin="round"
       stroke-linecap="round"
       stroke-width="0.1"
       stroke="currentColor"
       x1="0.050000001"
       y1="0"
       x2="29.4039"
       y2="0"
       id="line2173" />
  </g>
  <g
     transform="translate(29.2639,4.0046875)"
     id="g2179">
    <rect
       x="0"
       y="-2"
       width="0.19"
       height="4"
       ry="0.0000"
       fill="currentColor"
       id="rect2177" />
  </g>
  <g
     transform="translate(22.0857,4.0046875)"
     id="g2183">
    <rect
       x="-0.064999998"
       y="-0.31389999"
       width="0.13"
       height="3.1238999"
       ry="0.039999999"
       fill="currentColor"
       id="rect2181" />
  </g>
  <a
     style="color:inherit"
     xlink:href="textedit:///home/potatochup/musicforwesties/music_source/./shape-of-you-acoustic.ly:21:19:20"
     id="a2189"
     transform="translate(-14.2264,-3.8453125)">
    <g
       transform="translate(36.2471,7.35)"
       id="g2187">
      <path
         transform="scale(0.004,-0.004)"
         d="m 218,136 c 55,0 108,-28 108,-89 0,-71 -55,-121 -102,-149 -35,-21 -75,-34 -116,-34 -55,0 -108,28 -108,89 0,71 55,121 102,149 35,21 75,34 116,34 z"
         fill="currentColor"
         id="path2185" />
    </g>
  </a>
  <a
     style="color:inherit"
     xlink:href="textedit:///home/potatochup/musicforwesties/music_source/./shape-of-you-acoustic.ly:21:26:27"
     id="a2197"
     transform="translate(-14.2264,-3.8453125)">
    <g
       transform="translate(36.2471,5.3)"
       id="g2195">
      <text
         font-family="serif"
         font-size="1.96px"
         text-anchor="start"
         fill="currentColor"
         id="text2193"><tspan
           id="tspan2191">a</tspan></text>
    </g>
  </a>
  <g
     transform="translate(17.6796,4.0046875)"
     id="g2201">
    <rect
       x="-0.064999998"
       y="-0.31389999"
       width="0.13"
       height="3.1238999"
       ry="0.039999999"
       fill="currentColor"
       id="rect2199" />
  </g>
  <g
     transform="translate(19.3688,3.5046875)"
     id="g2205">
    <path
       transform="scale(0.004,-0.004)"
       d="M 0,0 C 0,31 25,56 56,56 87,56 112,31 112,0 112,-31 87,-56 56,-56 25,-56 0,-31 0,0 Z"
       fill="currentColor"
       id="path2203" />
  </g>
  <a
     style="color:inherit"
     xlink:href="textedit:///home/potatochup/musicforwesties/music_source/./shape-of-you-acoustic.ly:21:4:5"
     id="a2211"
     transform="translate(-14.2264,-3.8453125)">
    <g
       transform="translate(31.841,7.35)"
       id="g2209">
      <path
         transform="scale(0.004,-0.004)"
         d="m 218,136 c 55,0 108,-28 108,-89 0,-71 -55,-121 -102,-149 -35,-21 -75,-34 -116,-34 -55,0 -108,28 -108,89 0,71 55,121 102,149 35,21 75,34 116,34 z"
         fill="currentColor"
         id="path2207" />
    </g>
  </a>
  <a
     style="color:inherit"
     xlink:href="textedit:///home/potatochup/musicforwesties/music_source/./shape-of-you-acoustic.ly:21:11:12"
     id="a2219"
     transform="translate(-14.2264,-3.8453125)">
    <g
       transform="translate(31.841,5.3)"
       id="g2217">
      <text
         font-family="serif"
         font-size="1.96px"
         text-anchor="start"
         fill="currentColor"
         id="text2215"><tspan
           id="tspan2213">1</tspan></text>
    </g>
  </a>
  <g
     transform="translate(9.1711,6.0046875)"
     id="g2223">
    <polygon
       stroke-linejoin="round"
       stroke-linecap="round"
       stroke-width="0.08"
       fill="currentColor"
       stroke="currentColor"
       points="0.04,0.2 0.04,-0.2 1.125,-0.2 1.125,0.2 "
       id="polygon2221" />
  </g>
  <g
     transform="translate(5.8,6.8146875)"
     id="g2227">
    <polygon
       stroke-linejoin="round"
       stroke-linecap="round"
       stroke-width="0.08"
       fill="currentColor"
       stroke="currentColor"
       points="0.04,0.2 0.04,-0.2 4.4962,-0.2 4.4962,0.2 "
       id="polygon2225" />
  </g>
  <g
     transform="translate(20.9857,6.0046875)"
     id="g2231">
    <polygon
       stroke-linejoin="round"
       stroke-linecap="round"
       stroke-width="0.08"
       fill="currentColor"
       stroke="currentColor"
       points="0.04,0.2 0.04,-0.2 1.125,-0.2 1.125,0.2 "
       id="polygon2229" />
  </g>
  <g
     transform="translate(17.6146,6.8146875)"
     id="g2235">
    <polygon
       stroke-linejoin="round"
       stroke-linecap="round"
       stroke-width="0.08"
       fill="currentColor"
       stroke="currentColor"
       points="0.04,0.2 0.04,-0.2 4.4962,-0.2 4.4962,0.2 "
       id="polygon2233" />
  </g>
  <g
     transform="translate(24.5899,4.0046875)"
     id="g2239">
    <rect
       x="-0.064999998"
       y="-0.31389999"
       width="0.13"
       height="3.3139"
       ry="0.039999999"
       fill="currentColor"
       id="rect2237" />
  </g>
  <a
     style="color:inherit"
     xlink:href="textedit:///home/potatochup/musicforwesties/music_source/./shape-of-you-acoustic.ly:21:33:34"
     id="a2245"
     transform="translate(-14.2264,-3.8453125)">
    <g
       transform="translate(38.7513,7.35)"
       id="g2243">
      <path
         transform="scale(0.004,-0.004)"
         d="m 218,136 c 55,0 108,-28 108,-89 0,-71 -55,-121 -102,-149 -35,-21 -75,-34 -116,-34 -55,0 -108,28 -108,89 0,71 55,121 102,149 35,21 75,34 116,34 z"
         fill="currentColor"
         id="path2241" />
    </g>
  </a>
  <a
     style="color:inherit"
     xlink:href="textedit:///home/potatochup/musicforwesties/music_source/./shape-of-you-acoustic.ly:21:39:40"
     id="a2253"
     transform="translate(-14.2264,-3.8453125)">
    <g
       transform="translate(38.7513,5.3)"
       id="g2251">
      <text
         font-family="serif"
         font-size="1.96px"
         text-anchor="start"
         fill="currentColor"
         id="text2249"><tspan
           id="tspan2247">2</tspan></text>
    </g>
  </a>
  <g
     transform="translate(12.7754,4.0046875)"
     id="g2257">
    <rect
       x="-0.064999998"
       y="-0.31389999"
       width="0.13"
       height="3.3139"
       ry="0.039999999"
       fill="currentColor"
       id="rect2255" />
  </g>
  <g
     transform="translate(5.865,4.0046875)"
     id="g2261">
    <rect
       x="-0.064999998"
       y="-0.31389999"
       width="0.13"
       height="3.1238999"
       ry="0.039999999"
       fill="currentColor"
       id="rect2259" />
  </g>
  <g
     transform="translate(7.5542,3.5046875)"
     id="g2265">
    <path
       transform="scale(0.004,-0.004)"
       d="M 0,0 C 0,31 25,56 56,56 87,56 112,31 112,0 112,-31 87,-56 56,-56 25,-56 0,-31 0,0 Z"
       fill="currentColor"
       id="path2263" />
  </g>
  <g
     transform="translate(0.13,4.0046875)"
     id="g2269">
    <path
       transform="scale(0.004,-0.004)"
       d="m 490,-250 h -92 c -6,0 -10,4 -10,10 v 480 c 0,6 4,10 10,10 h 92 c 6,0 10,-4 10,-10 v -480 c 0,-6 -4,-10 -10,-10 z m -220,0 h -93 c -6,0 -10,4 -10,10 v 480 c 0,6 4,10 10,10 h 93 c 6,0 10,-4 10,-10 v -480 c 0,-6 -4,-10 -10,-10 z"
       fill="currentColor"
       id="path2267" />
  </g>
  <a
     style="color:inherit"
     xlink:href="textedit:///home/potatochup/musicforwesties/music_source/./shape-of-you-acoustic.ly:21:4:5"
     id="a2275"
     transform="translate(-14.2264,-3.8453125)">
    <g
       transform="translate(20.0264,7.35)"
       id="g2273">
      <path
         transform="scale(0.004,-0.004)"
         d="m 218,136 c 55,0 108,-28 108,-89 0,-71 -55,-121 -102,-149 -35,-21 -75,-34 -116,-34 -55,0 -108,28 -108,89 0,71 55,121 102,149 35,21 75,34 116,34 z"
         fill="currentColor"
         id="path2271" />
    </g>
  </a>
  <a
     style="color:inherit"
     xlink:href="textedit:///home/potatochup/musicforwesties/music_source/./shape-of-you-acoustic.ly:21:11:12"
     id="a2283"
     transform="translate(-14.2264,-3.8453125)">
    <g
       transform="translate(20.0264,5.3)"
       id="g2281">
      <text
         font-family="serif"
         font-size="1.96px"
         text-anchor="start"
         fill="currentColor"
         id="text2279"><tspan
           id="tspan2277">1</tspan></text>
    </g>
  </a>
  <g
     transform="translate(10.2711,4.0046875)"
     id="g2287">
    <rect
       x="-0.064999998"
       y="-0.31389999"
       width="0.13"
       height="3.1238999"
       ry="0.039999999"
       fill="currentColor"
       id="rect2285" />
  </g>
  <a
     style="color:inherit"
     xlink:href="textedit:///home/potatochup/musicforwesties/music_source/./shape-of-you-acoustic.ly:21:33:34"
     id="a2293"
     transform="translate(-14.2264,-3.8453125)">
    <g
       transform="translate(26.9368,7.35)"
       id="g2291">
      <path
         transform="scale(0.004,-0.004)"
         d="m 218,136 c 55,0 108,-28 108,-89 0,-71 -55,-121 -102,-149 -35,-21 -75,-34 -116,-34 -55,0 -108,28 -108,89 0,71 55,121 102,149 35,21 75,34 116,34 z"
         fill="currentColor"
         id="path2289" />
    </g>
  </a>
  <a
     style="color:inherit"
     xlink:href="textedit:///home/potatochup/musicforwesties/music_source/./shape-of-you-acoustic.ly:21:39:40"
     id="a2301"
     transform="translate(-14.2264,-3.8453125)">
    <g
       transform="translate(26.9368,5.3)"
       id="g2299">
      <text
         font-family="serif"
         font-size="1.96px"
         text-anchor="start"
         fill="currentColor"
         id="text2297"><tspan
           id="tspan2295">2</tspan></text>
    </g>
  </a>
  <a
     style="color:inherit"
     xlink:href="textedit:///home/potatochup/musicforwesties/music_source/./shape-of-you-acoustic.ly:21:19:20"
     id="a2307"
     transform="translate(-14.2264,-3.8453125)">
    <g
       transform="translate(24.4325,7.35)"
       id="g2305">
      <path
         transform="scale(0.004,-0.004)"
         d="m 218,136 c 55,0 108,-28 108,-89 0,-71 -55,-121 -102,-149 -35,-21 -75,-34 -116,-34 -55,0 -108,28 -108,89 0,71 55,121 102,149 35,21 75,34 116,34 z"
         fill="currentColor"
         id="path2303" />
    </g>
  </a>
  <a
     style="color:inherit"
     xlink:href="textedit:///home/potatochup/musicforwesties/music_source/./shape-of-you-acoustic.ly:21:26:27"
     id="a2315"
     transform="translate(-14.2264,-3.8453125)">
    <g
       transform="translate(24.4325,5.3)"
       id="g2313">
      <text
         font-family="serif"
         font-size="1.96px"
         text-anchor="start"
         fill="currentColor"
         id="text2311"><tspan
           id="tspan2309">a</tspan></text>
    </g>
  </a>
  <g
     transform="translate(14.7442,161.26089)"
     id="g2321">
    <a
       xlink:href="https://lilypond.org/"
       id="a2319">
      <rect
         x="0"
         y="-0.48879999"
         width="61.560398"
         height="2.1603"
         fill="none"
         stroke="none"
         stroke-width="0"
         id="rect2317" />
    </a>
  </g>
  <g
     transform="translate(14.7442,161.26089)"
     id="g2327">
    <text
       font-family="serif"
       font-size="2.2001px"
       text-anchor="start"
       fill="currentColor"
       id="text2325"><tspan
         id="tspan2323">Music engraving by LilyPond 2.22.1—www.lilypond.org</tspan></text>
  </g>
</svg>
