<?xml version="1.0" encoding="UTF-8" standalone="no"?>
<svg
   version="1.2"
   width="66.497269mm"
   height="18.145317mm"
   viewBox="0 0 37.840619 10.325687"
   id="svg551"
   sodipodi:docname="so_young.svg"
   inkscape:version="1.1.2 (0a00cf5339, 2022-02-04)"
   xmlns:inkscape="http://www.inkscape.org/namespaces/inkscape"
   xmlns:sodipodi="http://sodipodi.sourceforge.net/DTD/sodipodi-0.dtd"
   xmlns:xlink="http://www.w3.org/1999/xlink"
   xmlns="http://www.w3.org/2000/svg"
   xmlns:svg="http://www.w3.org/2000/svg">
  <defs
     id="defs555" />
  <sodipodi:namedview
     id="namedview553"
     pagecolor="#ffffff"
     bordercolor="#666666"
     borderopacity="1.0"
     inkscape:pageshadow="2"
     inkscape:pageopacity="0.0"
     inkscape:pagecheckerboard="0"
     inkscape:document-units="mm"
     showgrid="false"
     fit-margin-top="0"
     fit-margin-left="0"
     fit-margin-right="0"
     fit-margin-bottom="0"
     inkscape:zoom="0.7786055"
     inkscape:cx="243.38384"
     inkscape:cy="136.78301"
     inkscape:window-width="1128"
     inkscape:window-height="688"
     inkscape:window-x="0"
     inkscape:window-y="0"
     inkscape:window-maximized="1"
     inkscape:current-layer="svg551" />
  <style
     type="text/css"
     id="style299"><![CDATA[
tspan { white-space: pre; }
]]></style>
  <!-- Page: 1/1 -->
  <g
     transform="translate(11.811218,7.9923875)"
     id="g303">
    <line
       stroke-linejoin="round"
       stroke-linecap="round"
       stroke-width="0.1"
       stroke="currentColor"
       x1="0.050000001"
       y1="0"
       x2="25.979401"
       y2="0"
       id="line301" />
  </g>
  <g
     transform="translate(11.811218,6.9923875)"
     id="g307">
    <line
       stroke-linejoin="round"
       stroke-linecap="round"
       stroke-width="0.1"
       stroke="currentColor"
       x1="0.050000001"
       y1="0"
       x2="25.979401"
       y2="0"
       id="line305" />
  </g>
  <g
     transform="translate(11.811218,5.9923875)"
     id="g311">
    <line
       stroke-linejoin="round"
       stroke-linecap="round"
       stroke-width="0.1"
       stroke="currentColor"
       x1="0.050000001"
       y1="0"
       x2="25.979401"
       y2="0"
       id="line309" />
  </g>
  <g
     transform="translate(11.811218,4.9923875)"
     id="g315">
    <line
       stroke-linejoin="round"
       stroke-linecap="round"
       stroke-width="0.1"
       stroke="currentColor"
       x1="0.050000001"
       y1="0"
       x2="25.979401"
       y2="0"
       id="line313" />
  </g>
  <g
     transform="translate(11.811218,3.9923875)"
     id="g319">
    <line
       stroke-linejoin="round"
       stroke-linecap="round"
       stroke-width="0.1"
       stroke="currentColor"
       x1="0.050000001"
       y1="0"
       x2="25.979401"
       y2="0"
       id="line317" />
  </g>
  <g
     transform="translate(37.650618,5.9923875)"
     id="g323">
    <rect
       x="0"
       y="-2"
       width="0.19"
       height="4"
       ry="0.0000"
       fill="currentColor"
       id="rect321" />
  </g>
  <a
     style="color:inherit"
     xlink:href="textedit:///home/potatochup/musicforwesties/music_source/so_young.ly:21:29:30"
     id="a329"
     transform="translate(-2.4151818,-3.8453125)">
    <g
       transform="translate(35.0516,9.3377)"
       id="g327">
      <path
         transform="scale(0.004,-0.004)"
         d="m 218,136 c 55,0 108,-28 108,-89 0,-71 -55,-121 -102,-149 -35,-21 -75,-34 -116,-34 -55,0 -108,28 -108,89 0,71 55,121 102,149 35,21 75,34 116,34 z"
         fill="currentColor"
         id="path325" />
    </g>
  </a>
  <a
     style="color:inherit"
     xlink:href="textedit:///home/potatochup/musicforwesties/music_source/so_young.ly:16:4:5"
     id="a337"
     transform="translate(-2.4151818,-3.8453125)">
    <g
       transform="translate(32.5474,5.3)"
       id="g335">
      <text
         font-family="serif"
         font-size="1.96px"
         text-anchor="start"
         fill="currentColor"
         id="text333"><tspan
           id="tspan331">&amp;</tspan></text>
    </g>
  </a>
  <a
     style="color:inherit"
     xlink:href="textedit:///home/potatochup/musicforwesties/music_source/so_young.ly:16:2:3"
     id="a343"
     transform="translate(-2.4151818,-3.8453125)">
    <g
       transform="translate(32.5474,8.3377)"
       id="g341">
      <path
         transform="scale(0.004,-0.004)"
         d="m 163,36 119,97 c 3,2 6,3 9,3 3,0 7,-1 10,-3 l 20,-16 c 3,-3 5,-8 5,-12 0,-4 -2,-9 -5,-12 L 206,0 321,-93 c 3,-3 5,-8 5,-12 0,-4 -2,-9 -5,-12 l -20,-16 c -3,-2 -7,-3 -10,-3 -3,0 -6,1 -9,3 L 163,-36 44,-133 c -3,-2 -6,-3 -9,-3 -3,0 -7,1 -10,3 l -20,16 c -3,3 -5,8 -5,12 0,4 2,9 5,12 L 120,0 5,93 c -3,3 -5,8 -5,12 0,4 2,9 5,12 l 20,16 c 3,2 7,3 10,3 3,0 6,-1 9,-3 z"
         fill="currentColor"
         id="path339" />
    </g>
  </a>
  <g
     transform="translate(31.371418,5.9923875)"
     id="g347">
    <rect
       x="-0.064999998"
       y="-3.8099999"
       width="0.13"
       height="1.8896"
       ry="0.039999999"
       fill="currentColor"
       id="rect345" />
  </g>
  <a
     style="color:inherit"
     xlink:href="textedit:///home/potatochup/musicforwesties/music_source/so_young.ly:17:4:5"
     id="a355"
     transform="translate(-2.4151818,-3.8453125)">
    <g
       transform="translate(35.0516,5.3277)"
       id="g353">
      <text
         font-family="serif"
         font-size="1.96px"
         text-anchor="start"
         fill="currentColor"
         id="text351"><tspan
           id="tspan349">2</tspan></text>
    </g>
  </a>
  <a
     style="color:inherit"
     xlink:href="textedit:///home/potatochup/musicforwesties/music_source/so_young.ly:17:2:3"
     id="a361"
     transform="translate(-2.4151818,-3.8453125)">
    <g
       transform="translate(35.0516,8.3377)"
       id="g359">
      <path
         transform="scale(0.004,-0.004)"
         d="m 163,36 119,97 c 3,2 6,3 9,3 3,0 7,-1 10,-3 l 20,-16 c 3,-3 5,-8 5,-12 0,-4 -2,-9 -5,-12 L 206,0 321,-93 c 3,-3 5,-8 5,-12 0,-4 -2,-9 -5,-12 l -20,-16 c -3,-2 -7,-3 -10,-3 -3,0 -6,1 -9,3 L 163,-36 44,-133 c -3,-2 -6,-3 -9,-3 -3,0 -7,1 -10,3 l -20,16 c -3,3 -5,8 -5,12 0,4 2,9 5,12 L 120,0 5,93 c -3,3 -5,8 -5,12 0,4 2,9 5,12 l 20,16 c 3,2 7,3 10,3 3,0 6,-1 9,-3 z"
         fill="currentColor"
         id="path357" />
    </g>
  </a>
  <g
     transform="translate(27.693018,5.9923875)"
     id="g365">
    <rect
       x="-0.064999998"
       y="1.6861"
       width="0.13"
       height="2.6472001"
       ry="0.039999999"
       fill="currentColor"
       id="rect363" />
  </g>
  <g
     transform="translate(28.867218,5.9923875)"
     id="g369">
    <rect
       x="-0.064999998"
       y="-3.8099999"
       width="0.13"
       height="1.8896"
       ry="0.039999999"
       fill="currentColor"
       id="rect367" />
  </g>
  <a
     style="color:inherit"
     xlink:href="textedit:///home/potatochup/musicforwesties/music_source/so_young.ly:21:19:20"
     id="a375"
     transform="translate(-2.4151818,-3.8453125)">
    <g
       transform="translate(30.0432,11.3377)"
       id="g373">
      <path
         transform="scale(0.004,-0.004)"
         d="m 218,136 c 55,0 108,-28 108,-89 0,-71 -55,-121 -102,-149 -35,-21 -75,-34 -116,-34 -55,0 -108,28 -108,89 0,71 55,121 102,149 35,21 75,34 116,34 z"
         fill="currentColor"
         id="path371" />
    </g>
  </a>
  <a
     style="color:inherit"
     xlink:href="textedit:///home/potatochup/musicforwesties/music_source/so_young.ly:15:2:3"
     id="a381"
     transform="translate(-2.4151818,-3.8453125)">
    <g
       transform="translate(30.0432,8.3377)"
       id="g379">
      <path
         transform="scale(0.004,-0.004)"
         d="m 163,36 119,97 c 3,2 6,3 9,3 3,0 7,-1 10,-3 l 20,-16 c 3,-3 5,-8 5,-12 0,-4 -2,-9 -5,-12 L 206,0 321,-93 c 3,-3 5,-8 5,-12 0,-4 -2,-9 -5,-12 l -20,-16 c -3,-2 -7,-3 -10,-3 -3,0 -6,1 -9,3 L 163,-36 44,-133 c -3,-2 -6,-3 -9,-3 -3,0 -7,1 -10,3 l -20,16 c -3,3 -5,8 -5,12 0,4 2,9 5,12 L 120,0 5,93 c -3,3 -5,8 -5,12 0,4 2,9 5,12 l 20,16 c 3,2 7,3 10,3 3,0 6,-1 9,-3 z"
         fill="currentColor"
         id="path377" />
    </g>
  </a>
  <a
     style="color:inherit"
     xlink:href="textedit:///home/potatochup/musicforwesties/music_source/so_young.ly:15:4:5"
     id="a389"
     transform="translate(-2.4151818,-3.8453125)">
    <g
       transform="translate(30.0432,5.3334)"
       id="g387">
      <text
         font-family="serif"
         font-size="1.96px"
         text-anchor="start"
         fill="currentColor"
         id="text385"><tspan
           id="tspan383">1</tspan></text>
    </g>
  </a>
  <g
     transform="translate(18.785418,2.1823875)"
     id="g393">
    <polygon
       stroke-linejoin="round"
       stroke-linecap="round"
       stroke-width="0.08"
       fill="currentColor"
       stroke="currentColor"
       points="0.04,0.2 0.04,-0.2 7.6026,-0.2 7.6026,0.2 "
       id="polygon391" />
  </g>
  <g
     transform="translate(28.802218,2.1823875)"
     id="g397">
    <polygon
       stroke-linejoin="round"
       stroke-linecap="round"
       stroke-width="0.08"
       fill="currentColor"
       stroke="currentColor"
       points="0.04,0.2 0.04,-0.2 7.6026,-0.2 7.6026,0.2 "
       id="polygon395" />
  </g>
  <g
     transform="translate(33.875718,5.9923875)"
     id="g401">
    <rect
       x="-0.064999998"
       y="-3.8099999"
       width="0.13"
       height="1.8896"
       ry="0.039999999"
       fill="currentColor"
       id="rect399" />
  </g>
  <g
     transform="translate(36.379918,5.9923875)"
     id="g405">
    <rect
       x="-0.064999998"
       y="-3.8099999"
       width="0.13"
       height="1.8896"
       ry="0.039999999"
       fill="currentColor"
       id="rect403" />
  </g>
  <a
     style="color:inherit"
     xlink:href="textedit:///home/potatochup/musicforwesties/music_source/so_young.ly:18:2:3"
     id="a411"
     transform="translate(-2.4151818,-3.8453125)">
    <g
       transform="translate(37.5559,8.3377)"
       id="g409">
      <path
         transform="scale(0.004,-0.004)"
         d="m 163,36 119,97 c 3,2 6,3 9,3 3,0 7,-1 10,-3 l 20,-16 c 3,-3 5,-8 5,-12 0,-4 -2,-9 -5,-12 L 206,0 321,-93 c 3,-3 5,-8 5,-12 0,-4 -2,-9 -5,-12 l -20,-16 c -3,-2 -7,-3 -10,-3 -3,0 -6,1 -9,3 L 163,-36 44,-133 c -3,-2 -6,-3 -9,-3 -3,0 -7,1 -10,3 l -20,16 c -3,3 -5,8 -5,12 0,4 2,9 5,12 L 120,0 5,93 c -3,3 -5,8 -5,12 0,4 2,9 5,12 l 20,16 c 3,2 7,3 10,3 3,0 6,-1 9,-3 z"
         fill="currentColor"
         id="path407" />
    </g>
  </a>
  <a
     style="color:inherit"
     xlink:href="textedit:///home/potatochup/musicforwesties/music_source/so_young.ly:18:4:5"
     id="a419"
     transform="translate(-2.4151818,-3.8453125)">
    <g
       transform="translate(37.5559,5.3)"
       id="g417">
      <text
         font-family="serif"
         font-size="1.96px"
         text-anchor="start"
         fill="currentColor"
         id="text415"><tspan
           id="tspan413">&amp;</tspan></text>
    </g>
  </a>
  <g
     transform="translate(32.701418,5.9923875)"
     id="g423">
    <rect
       x="-0.064999998"
       y="-0.31389999"
       width="0.13"
       height="3.3139"
       ry="0.039999999"
       fill="currentColor"
       id="rect421" />
  </g>
  <a
     style="color:inherit"
     xlink:href="textedit:///home/potatochup/musicforwesties/music_source/so_young.ly:12:4:5"
     id="a431"
     transform="translate(-2.4151818,-3.8453125)">
    <g
       transform="translate(22.5306,5.3)"
       id="g429">
      <text
         font-family="serif"
         font-size="1.96px"
         text-anchor="start"
         fill="currentColor"
         id="text427"><tspan
           id="tspan425">&amp;</tspan></text>
    </g>
  </a>
  <g
     transform="translate(17.676218,5.9923875)"
     id="g435">
    <rect
       x="-0.064999998"
       y="1.6861"
       width="0.13"
       height="2.6472001"
       ry="0.039999999"
       fill="currentColor"
       id="rect433" />
  </g>
  <g
     transform="translate(18.850418,5.9923875)"
     id="g439">
    <rect
       x="-0.064999998"
       y="-3.8099999"
       width="0.13"
       height="1.8896"
       ry="0.039999999"
       fill="currentColor"
       id="rect437" />
  </g>
  <g
     transform="translate(11.941218,5.9923875)"
     id="g443">
    <path
       transform="scale(0.004,-0.004)"
       d="m 490,-250 h -92 c -6,0 -10,4 -10,10 v 480 c 0,6 4,10 10,10 h 92 c 6,0 10,-4 10,-10 v -480 c 0,-6 -4,-10 -10,-10 z m -220,0 h -93 c -6,0 -10,4 -10,10 v 480 c 0,6 4,10 10,10 h 93 c 6,0 10,-4 10,-10 v -480 c 0,-6 -4,-10 -10,-10 z"
       fill="currentColor"
       id="path441" />
  </g>
  <a
     style="color:inherit"
     xlink:href="textedit:///home/potatochup/musicforwesties/music_source/so_young.ly:21:2:3"
     id="a449"
     transform="translate(-2.4151818,-3.8453125)">
    <g
       transform="translate(20.0264,11.3377)"
       id="g447">
      <path
         transform="scale(0.004,-0.004)"
         d="m 218,136 c 55,0 108,-28 108,-89 0,-71 -55,-121 -102,-149 -35,-21 -75,-34 -116,-34 -55,0 -108,28 -108,89 0,71 55,121 102,149 35,21 75,34 116,34 z"
         fill="currentColor"
         id="path445" />
    </g>
  </a>
  <a
     style="color:inherit"
     xlink:href="textedit:///home/potatochup/musicforwesties/music_source/so_young.ly:11:2:3"
     id="a455"
     transform="translate(-2.4151818,-3.8453125)">
    <g
       transform="translate(20.0264,8.3377)"
       id="g453">
      <path
         transform="scale(0.004,-0.004)"
         d="m 163,36 119,97 c 3,2 6,3 9,3 3,0 7,-1 10,-3 l 20,-16 c 3,-3 5,-8 5,-12 0,-4 -2,-9 -5,-12 L 206,0 321,-93 c 3,-3 5,-8 5,-12 0,-4 -2,-9 -5,-12 l -20,-16 c -3,-2 -7,-3 -10,-3 -3,0 -6,1 -9,3 L 163,-36 44,-133 c -3,-2 -6,-3 -9,-3 -3,0 -7,1 -10,3 l -20,16 c -3,3 -5,8 -5,12 0,4 2,9 5,12 L 120,0 5,93 c -3,3 -5,8 -5,12 0,4 2,9 5,12 l 20,16 c 3,2 7,3 10,3 3,0 6,-1 9,-3 z"
         fill="currentColor"
         id="path451" />
    </g>
  </a>
  <a
     style="color:inherit"
     xlink:href="textedit:///home/potatochup/musicforwesties/music_source/so_young.ly:11:5:6"
     id="a463"
     transform="translate(-2.4151818,-3.8453125)">
    <g
       transform="translate(20.0264,5.3334)"
       id="g461">
      <text
         font-family="serif"
         font-size="1.96px"
         text-anchor="start"
         fill="currentColor"
         id="text459"><tspan
           id="tspan457">1</tspan></text>
    </g>
  </a>
  <g
     transform="translate(5.0581182,3.8125875)"
     id="g469">
    <text
       font-family="serif"
       font-size="2.2001px"
       text-anchor="start"
       fill="currentColor"
       id="text467"><tspan
         id="tspan465">hi-hat</tspan></text>
  </g>
  <g
     transform="translate(5.3312182,6.8125875)"
     id="g475">
    <text
       font-family="serif"
       font-size="2.2001px"
       text-anchor="start"
       fill="currentColor"
       id="text473"><tspan
         id="tspan471">snare</tspan></text>
  </g>
  <g
     transform="translate(-0.06338179,9.8125875)"
     id="g481">
    <text
       font-family="serif"
       font-size="2.2001px"
       text-anchor="start"
       fill="currentColor"
       id="text479"><tspan
         id="tspan477">bass drum</tspan></text>
  </g>
  <g
     transform="translate(26.363018,5.9923875)"
     id="g485">
    <rect
       x="-0.064999998"
       y="-3.8099999"
       width="0.13"
       height="1.8896"
       ry="0.039999999"
       fill="currentColor"
       id="rect483" />
  </g>
  <a
     style="color:inherit"
     xlink:href="textedit:///home/potatochup/musicforwesties/music_source/so_young.ly:14:2:3"
     id="a491"
     transform="translate(-2.4151818,-3.8453125)">
    <g
       transform="translate(27.539,8.3377)"
       id="g489">
      <path
         transform="scale(0.004,-0.004)"
         d="m 163,36 119,97 c 3,2 6,3 9,3 3,0 7,-1 10,-3 l 20,-16 c 3,-3 5,-8 5,-12 0,-4 -2,-9 -5,-12 L 206,0 321,-93 c 3,-3 5,-8 5,-12 0,-4 -2,-9 -5,-12 l -20,-16 c -3,-2 -7,-3 -10,-3 -3,0 -6,1 -9,3 L 163,-36 44,-133 c -3,-2 -6,-3 -9,-3 -3,0 -7,1 -10,3 l -20,16 c -3,3 -5,8 -5,12 0,4 2,9 5,12 L 120,0 5,93 c -3,3 -5,8 -5,12 0,4 2,9 5,12 l 20,16 c 3,2 7,3 10,3 3,0 6,-1 9,-3 z"
         fill="currentColor"
         id="path487" />
    </g>
  </a>
  <a
     style="color:inherit"
     xlink:href="textedit:///home/potatochup/musicforwesties/music_source/so_young.ly:14:4:5"
     id="a499"
     transform="translate(-2.4151818,-3.8453125)">
    <g
       transform="translate(27.539,5.3)"
       id="g497">
      <text
         font-family="serif"
         font-size="1.96px"
         text-anchor="start"
         fill="currentColor"
         id="text495"><tspan
           id="tspan493">&amp;</tspan></text>
    </g>
  </a>
  <g
     transform="translate(22.684618,5.9923875)"
     id="g503">
    <rect
       x="-0.064999998"
       y="-0.31389999"
       width="0.13"
       height="3.3139"
       ry="0.039999999"
       fill="currentColor"
       id="rect501" />
  </g>
  <a
     style="color:inherit"
     xlink:href="textedit:///home/potatochup/musicforwesties/music_source/so_young.ly:12:2:3"
     id="a509"
     transform="translate(-2.4151818,-3.8453125)">
    <g
       transform="translate(22.5306,8.3377)"
       id="g507">
      <path
         transform="scale(0.004,-0.004)"
         d="m 163,36 119,97 c 3,2 6,3 9,3 3,0 7,-1 10,-3 l 20,-16 c 3,-3 5,-8 5,-12 0,-4 -2,-9 -5,-12 L 206,0 321,-93 c 3,-3 5,-8 5,-12 0,-4 -2,-9 -5,-12 l -20,-16 c -3,-2 -7,-3 -10,-3 -3,0 -6,1 -9,3 L 163,-36 44,-133 c -3,-2 -6,-3 -9,-3 -3,0 -7,1 -10,3 l -20,16 c -3,3 -5,8 -5,12 0,4 2,9 5,12 L 120,0 5,93 c -3,3 -5,8 -5,12 0,4 2,9 5,12 l 20,16 c 3,2 7,3 10,3 3,0 6,-1 9,-3 z"
         fill="currentColor"
         id="path505" />
    </g>
  </a>
  <g
     transform="translate(23.858818,5.9923875)"
     id="g513">
    <rect
       x="-0.064999998"
       y="-3.8099999"
       width="0.13"
       height="1.8896"
       ry="0.039999999"
       fill="currentColor"
       id="rect511" />
  </g>
  <a
     style="color:inherit"
     xlink:href="textedit:///home/potatochup/musicforwesties/music_source/so_young.ly:21:12:13"
     id="a519"
     transform="translate(-2.4151818,-3.8453125)">
    <g
       transform="translate(25.0348,9.3377)"
       id="g517">
      <path
         transform="scale(0.004,-0.004)"
         d="m 218,136 c 55,0 108,-28 108,-89 0,-71 -55,-121 -102,-149 -35,-21 -75,-34 -116,-34 -55,0 -108,28 -108,89 0,71 55,121 102,149 35,21 75,34 116,34 z"
         fill="currentColor"
         id="path515" />
    </g>
  </a>
  <a
     style="color:inherit"
     xlink:href="textedit:///home/potatochup/musicforwesties/music_source/so_young.ly:13:2:3"
     id="a525"
     transform="translate(-2.4151818,-3.8453125)">
    <g
       transform="translate(25.0348,8.3377)"
       id="g523">
      <path
         transform="scale(0.004,-0.004)"
         d="m 163,36 119,97 c 3,2 6,3 9,3 3,0 7,-1 10,-3 l 20,-16 c 3,-3 5,-8 5,-12 0,-4 -2,-9 -5,-12 L 206,0 321,-93 c 3,-3 5,-8 5,-12 0,-4 -2,-9 -5,-12 l -20,-16 c -3,-2 -7,-3 -10,-3 -3,0 -6,1 -9,3 L 163,-36 44,-133 c -3,-2 -6,-3 -9,-3 -3,0 -7,1 -10,3 l -20,16 c -3,3 -5,8 -5,12 0,4 2,9 5,12 L 120,0 5,93 c -3,3 -5,8 -5,12 0,4 2,9 5,12 l 20,16 c 3,2 7,3 10,3 3,0 6,-1 9,-3 z"
         fill="currentColor"
         id="path521" />
    </g>
  </a>
  <a
     style="color:inherit"
     xlink:href="textedit:///home/potatochup/musicforwesties/music_source/so_young.ly:13:4:5"
     id="a533"
     transform="translate(-2.4151818,-3.8453125)">
    <g
       transform="translate(25.0348,5.3277)"
       id="g531">
      <text
         font-family="serif"
         font-size="1.96px"
         text-anchor="start"
         fill="currentColor"
         id="text529"><tspan
           id="tspan527">2</tspan></text>
    </g>
  </a>
  <g
     transform="translate(21.354618,5.9923875)"
     id="g537">
    <rect
       x="-0.064999998"
       y="-3.8099999"
       width="0.13"
       height="1.8896"
       ry="0.039999999"
       fill="currentColor"
       id="rect535" />
  </g>
  <g
     transform="translate(11.811218,7.9923875)"
     id="g719">
    <line
       stroke-linejoin="round"
       stroke-linecap="round"
       stroke-width="0.1"
       stroke="currentColor"
       x1="0.050000001"
       y1="0"
       x2="25.979401"
       y2="0"
       id="line717" />
  </g>
  <g
     transform="translate(11.811218,6.9923875)"
     id="g723">
    <line
       stroke-linejoin="round"
       stroke-linecap="round"
       stroke-width="0.1"
       stroke="currentColor"
       x1="0.050000001"
       y1="0"
       x2="25.979401"
       y2="0"
       id="line721" />
  </g>
  <g
     transform="translate(11.811218,5.9923875)"
     id="g727">
    <line
       stroke-linejoin="round"
       stroke-linecap="round"
       stroke-width="0.1"
       stroke="currentColor"
       x1="0.050000001"
       y1="0"
       x2="25.979401"
       y2="0"
       id="line725" />
  </g>
  <g
     transform="translate(11.811218,4.9923875)"
     id="g731">
    <line
       stroke-linejoin="round"
       stroke-linecap="round"
       stroke-width="0.1"
       stroke="currentColor"
       x1="0.050000001"
       y1="0"
       x2="25.979401"
       y2="0"
       id="line729" />
  </g>
  <g
     transform="translate(11.811218,3.9923875)"
     id="g735">
    <line
       stroke-linejoin="round"
       stroke-linecap="round"
       stroke-width="0.1"
       stroke="currentColor"
       x1="0.050000001"
       y1="0"
       x2="25.979401"
       y2="0"
       id="line733" />
  </g>
  <g
     transform="translate(37.650618,5.9923875)"
     id="g739">
    <rect
       x="0"
       y="-2"
       width="0.19"
       height="4"
       ry="0.0000"
       fill="currentColor"
       id="rect737" />
  </g>
  <a
     style="color:inherit"
     xlink:href="textedit:///home/potatochup/musicforwesties/music_source/so_young.ly:21:29:30"
     id="a745"
     transform="translate(-2.4151818,-3.8453125)">
    <g
       transform="translate(35.0516,9.3377)"
       id="g743">
      <path
         transform="scale(0.004,-0.004)"
         d="m 218,136 c 55,0 108,-28 108,-89 0,-71 -55,-121 -102,-149 -35,-21 -75,-34 -116,-34 -55,0 -108,28 -108,89 0,71 55,121 102,149 35,21 75,34 116,34 z"
         fill="currentColor"
         id="path741" />
    </g>
  </a>
  <a
     style="color:inherit"
     xlink:href="textedit:///home/potatochup/musicforwesties/music_source/so_young.ly:16:4:5"
     id="a753"
     transform="translate(-2.4151818,-3.8453125)">
    <g
       transform="translate(32.5474,5.3)"
       id="g751">
      <text
         font-family="serif"
         font-size="1.96px"
         text-anchor="start"
         fill="currentColor"
         id="text749"><tspan
           id="tspan747">&amp;</tspan></text>
    </g>
  </a>
  <a
     style="color:inherit"
     xlink:href="textedit:///home/potatochup/musicforwesties/music_source/so_young.ly:16:2:3"
     id="a759"
     transform="translate(-2.4151818,-3.8453125)">
    <g
       transform="translate(32.5474,8.3377)"
       id="g757">
      <path
         transform="scale(0.004,-0.004)"
         d="m 163,36 119,97 c 3,2 6,3 9,3 3,0 7,-1 10,-3 l 20,-16 c 3,-3 5,-8 5,-12 0,-4 -2,-9 -5,-12 L 206,0 321,-93 c 3,-3 5,-8 5,-12 0,-4 -2,-9 -5,-12 l -20,-16 c -3,-2 -7,-3 -10,-3 -3,0 -6,1 -9,3 L 163,-36 44,-133 c -3,-2 -6,-3 -9,-3 -3,0 -7,1 -10,3 l -20,16 c -3,3 -5,8 -5,12 0,4 2,9 5,12 L 120,0 5,93 c -3,3 -5,8 -5,12 0,4 2,9 5,12 l 20,16 c 3,2 7,3 10,3 3,0 6,-1 9,-3 z"
         fill="currentColor"
         id="path755" />
    </g>
  </a>
  <g
     transform="translate(31.371418,5.9923875)"
     id="g763">
    <rect
       x="-0.064999998"
       y="-3.8099999"
       width="0.13"
       height="1.8896"
       ry="0.039999999"
       fill="currentColor"
       id="rect761" />
  </g>
  <a
     style="color:inherit"
     xlink:href="textedit:///home/potatochup/musicforwesties/music_source/so_young.ly:17:4:5"
     id="a771"
     transform="translate(-2.4151818,-3.8453125)">
    <g
       transform="translate(35.0516,5.3277)"
       id="g769">
      <text
         font-family="serif"
         font-size="1.96px"
         text-anchor="start"
         fill="currentColor"
         id="text767"><tspan
           id="tspan765">2</tspan></text>
    </g>
  </a>
  <a
     style="color:inherit"
     xlink:href="textedit:///home/potatochup/musicforwesties/music_source/so_young.ly:17:2:3"
     id="a777"
     transform="translate(-2.4151818,-3.8453125)">
    <g
       transform="translate(35.0516,8.3377)"
       id="g775">
      <path
         transform="scale(0.004,-0.004)"
         d="m 163,36 119,97 c 3,2 6,3 9,3 3,0 7,-1 10,-3 l 20,-16 c 3,-3 5,-8 5,-12 0,-4 -2,-9 -5,-12 L 206,0 321,-93 c 3,-3 5,-8 5,-12 0,-4 -2,-9 -5,-12 l -20,-16 c -3,-2 -7,-3 -10,-3 -3,0 -6,1 -9,3 L 163,-36 44,-133 c -3,-2 -6,-3 -9,-3 -3,0 -7,1 -10,3 l -20,16 c -3,3 -5,8 -5,12 0,4 2,9 5,12 L 120,0 5,93 c -3,3 -5,8 -5,12 0,4 2,9 5,12 l 20,16 c 3,2 7,3 10,3 3,0 6,-1 9,-3 z"
         fill="currentColor"
         id="path773" />
    </g>
  </a>
  <g
     transform="translate(27.693018,5.9923875)"
     id="g781">
    <rect
       x="-0.064999998"
       y="1.6861"
       width="0.13"
       height="2.6472001"
       ry="0.039999999"
       fill="currentColor"
       id="rect779" />
  </g>
  <g
     transform="translate(28.867218,5.9923875)"
     id="g785">
    <rect
       x="-0.064999998"
       y="-3.8099999"
       width="0.13"
       height="1.8896"
       ry="0.039999999"
       fill="currentColor"
       id="rect783" />
  </g>
  <a
     style="color:inherit"
     xlink:href="textedit:///home/potatochup/musicforwesties/music_source/so_young.ly:21:19:20"
     id="a791"
     transform="translate(-2.4151818,-3.8453125)">
    <g
       transform="translate(30.0432,11.3377)"
       id="g789">
      <path
         transform="scale(0.004,-0.004)"
         d="m 218,136 c 55,0 108,-28 108,-89 0,-71 -55,-121 -102,-149 -35,-21 -75,-34 -116,-34 -55,0 -108,28 -108,89 0,71 55,121 102,149 35,21 75,34 116,34 z"
         fill="currentColor"
         id="path787" />
    </g>
  </a>
  <a
     style="color:inherit"
     xlink:href="textedit:///home/potatochup/musicforwesties/music_source/so_young.ly:15:2:3"
     id="a797"
     transform="translate(-2.4151818,-3.8453125)">
    <g
       transform="translate(30.0432,8.3377)"
       id="g795">
      <path
         transform="scale(0.004,-0.004)"
         d="m 163,36 119,97 c 3,2 6,3 9,3 3,0 7,-1 10,-3 l 20,-16 c 3,-3 5,-8 5,-12 0,-4 -2,-9 -5,-12 L 206,0 321,-93 c 3,-3 5,-8 5,-12 0,-4 -2,-9 -5,-12 l -20,-16 c -3,-2 -7,-3 -10,-3 -3,0 -6,1 -9,3 L 163,-36 44,-133 c -3,-2 -6,-3 -9,-3 -3,0 -7,1 -10,3 l -20,16 c -3,3 -5,8 -5,12 0,4 2,9 5,12 L 120,0 5,93 c -3,3 -5,8 -5,12 0,4 2,9 5,12 l 20,16 c 3,2 7,3 10,3 3,0 6,-1 9,-3 z"
         fill="currentColor"
         id="path793" />
    </g>
  </a>
  <a
     style="color:inherit"
     xlink:href="textedit:///home/potatochup/musicforwesties/music_source/so_young.ly:15:4:5"
     id="a805"
     transform="translate(-2.4151818,-3.8453125)">
    <g
       transform="translate(30.0432,5.3334)"
       id="g803">
      <text
         font-family="serif"
         font-size="1.96px"
         text-anchor="start"
         fill="currentColor"
         id="text801"><tspan
           id="tspan799">1</tspan></text>
    </g>
  </a>
  <g
     transform="translate(18.785418,2.1823875)"
     id="g809">
    <polygon
       stroke-linejoin="round"
       stroke-linecap="round"
       stroke-width="0.08"
       fill="currentColor"
       stroke="currentColor"
       points="0.04,0.2 0.04,-0.2 7.6026,-0.2 7.6026,0.2 "
       id="polygon807" />
  </g>
  <g
     transform="translate(28.802218,2.1823875)"
     id="g813">
    <polygon
       stroke-linejoin="round"
       stroke-linecap="round"
       stroke-width="0.08"
       fill="currentColor"
       stroke="currentColor"
       points="0.04,0.2 0.04,-0.2 7.6026,-0.2 7.6026,0.2 "
       id="polygon811" />
  </g>
  <g
     transform="translate(33.875718,5.9923875)"
     id="g817">
    <rect
       x="-0.064999998"
       y="-3.8099999"
       width="0.13"
       height="1.8896"
       ry="0.039999999"
       fill="currentColor"
       id="rect815" />
  </g>
  <g
     transform="translate(36.379918,5.9923875)"
     id="g821">
    <rect
       x="-0.064999998"
       y="-3.8099999"
       width="0.13"
       height="1.8896"
       ry="0.039999999"
       fill="currentColor"
       id="rect819" />
  </g>
  <a
     style="color:inherit"
     xlink:href="textedit:///home/potatochup/musicforwesties/music_source/so_young.ly:18:2:3"
     id="a827"
     transform="translate(-2.4151818,-3.8453125)">
    <g
       transform="translate(37.5559,8.3377)"
       id="g825">
      <path
         transform="scale(0.004,-0.004)"
         d="m 163,36 119,97 c 3,2 6,3 9,3 3,0 7,-1 10,-3 l 20,-16 c 3,-3 5,-8 5,-12 0,-4 -2,-9 -5,-12 L 206,0 321,-93 c 3,-3 5,-8 5,-12 0,-4 -2,-9 -5,-12 l -20,-16 c -3,-2 -7,-3 -10,-3 -3,0 -6,1 -9,3 L 163,-36 44,-133 c -3,-2 -6,-3 -9,-3 -3,0 -7,1 -10,3 l -20,16 c -3,3 -5,8 -5,12 0,4 2,9 5,12 L 120,0 5,93 c -3,3 -5,8 -5,12 0,4 2,9 5,12 l 20,16 c 3,2 7,3 10,3 3,0 6,-1 9,-3 z"
         fill="currentColor"
         id="path823" />
    </g>
  </a>
  <a
     style="color:inherit"
     xlink:href="textedit:///home/potatochup/musicforwesties/music_source/so_young.ly:18:4:5"
     id="a835"
     transform="translate(-2.4151818,-3.8453125)">
    <g
       transform="translate(37.5559,5.3)"
       id="g833">
      <text
         font-family="serif"
         font-size="1.96px"
         text-anchor="start"
         fill="currentColor"
         id="text831"><tspan
           id="tspan829">&amp;</tspan></text>
    </g>
  </a>
  <g
     transform="translate(32.701418,5.9923875)"
     id="g839">
    <rect
       x="-0.064999998"
       y="-0.31389999"
       width="0.13"
       height="3.3139"
       ry="0.039999999"
       fill="currentColor"
       id="rect837" />
  </g>
  <a
     style="color:inherit"
     xlink:href="textedit:///home/potatochup/musicforwesties/music_source/so_young.ly:12:4:5"
     id="a847"
     transform="translate(-2.4151818,-3.8453125)">
    <g
       transform="translate(22.5306,5.3)"
       id="g845">
      <text
         font-family="serif"
         font-size="1.96px"
         text-anchor="start"
         fill="currentColor"
         id="text843"><tspan
           id="tspan841">&amp;</tspan></text>
    </g>
  </a>
  <g
     transform="translate(17.676218,5.9923875)"
     id="g851">
    <rect
       x="-0.064999998"
       y="1.6861"
       width="0.13"
       height="2.6472001"
       ry="0.039999999"
       fill="currentColor"
       id="rect849" />
  </g>
  <g
     transform="translate(18.850418,5.9923875)"
     id="g855">
    <rect
       x="-0.064999998"
       y="-3.8099999"
       width="0.13"
       height="1.8896"
       ry="0.039999999"
       fill="currentColor"
       id="rect853" />
  </g>
  <g
     transform="translate(11.941218,5.9923875)"
     id="g859">
    <path
       transform="scale(0.004,-0.004)"
       d="m 490,-250 h -92 c -6,0 -10,4 -10,10 v 480 c 0,6 4,10 10,10 h 92 c 6,0 10,-4 10,-10 v -480 c 0,-6 -4,-10 -10,-10 z m -220,0 h -93 c -6,0 -10,4 -10,10 v 480 c 0,6 4,10 10,10 h 93 c 6,0 10,-4 10,-10 v -480 c 0,-6 -4,-10 -10,-10 z"
       fill="currentColor"
       id="path857" />
  </g>
  <a
     style="color:inherit"
     xlink:href="textedit:///home/potatochup/musicforwesties/music_source/so_young.ly:21:2:3"
     id="a865"
     transform="translate(-2.4151818,-3.8453125)">
    <g
       transform="translate(20.0264,11.3377)"
       id="g863">
      <path
         transform="scale(0.004,-0.004)"
         d="m 218,136 c 55,0 108,-28 108,-89 0,-71 -55,-121 -102,-149 -35,-21 -75,-34 -116,-34 -55,0 -108,28 -108,89 0,71 55,121 102,149 35,21 75,34 116,34 z"
         fill="currentColor"
         id="path861" />
    </g>
  </a>
  <a
     style="color:inherit"
     xlink:href="textedit:///home/potatochup/musicforwesties/music_source/so_young.ly:11:2:3"
     id="a871"
     transform="translate(-2.4151818,-3.8453125)">
    <g
       transform="translate(20.0264,8.3377)"
       id="g869">
      <path
         transform="scale(0.004,-0.004)"
         d="m 163,36 119,97 c 3,2 6,3 9,3 3,0 7,-1 10,-3 l 20,-16 c 3,-3 5,-8 5,-12 0,-4 -2,-9 -5,-12 L 206,0 321,-93 c 3,-3 5,-8 5,-12 0,-4 -2,-9 -5,-12 l -20,-16 c -3,-2 -7,-3 -10,-3 -3,0 -6,1 -9,3 L 163,-36 44,-133 c -3,-2 -6,-3 -9,-3 -3,0 -7,1 -10,3 l -20,16 c -3,3 -5,8 -5,12 0,4 2,9 5,12 L 120,0 5,93 c -3,3 -5,8 -5,12 0,4 2,9 5,12 l 20,16 c 3,2 7,3 10,3 3,0 6,-1 9,-3 z"
         fill="currentColor"
         id="path867" />
    </g>
  </a>
  <a
     style="color:inherit"
     xlink:href="textedit:///home/potatochup/musicforwesties/music_source/so_young.ly:11:5:6"
     id="a879"
     transform="translate(-2.4151818,-3.8453125)">
    <g
       transform="translate(20.0264,5.3334)"
       id="g877">
      <text
         font-family="serif"
         font-size="1.96px"
         text-anchor="start"
         fill="currentColor"
         id="text875"><tspan
           id="tspan873">1</tspan></text>
    </g>
  </a>
  <g
     transform="translate(5.0581182,3.8125875)"
     id="g885">
    <text
       font-family="serif"
       font-size="2.2001px"
       text-anchor="start"
       fill="currentColor"
       id="text883"><tspan
         id="tspan881">hi-hat</tspan></text>
  </g>
  <g
     transform="translate(5.3312182,6.8125875)"
     id="g891">
    <text
       font-family="serif"
       font-size="2.2001px"
       text-anchor="start"
       fill="currentColor"
       id="text889"><tspan
         id="tspan887">snare</tspan></text>
  </g>
  <g
     transform="translate(-0.06338179,9.8125875)"
     id="g897">
    <text
       font-family="serif"
       font-size="2.2001px"
       text-anchor="start"
       fill="currentColor"
       id="text895"><tspan
         id="tspan893">bass drum</tspan></text>
  </g>
  <g
     transform="translate(26.363018,5.9923875)"
     id="g901">
    <rect
       x="-0.064999998"
       y="-3.8099999"
       width="0.13"
       height="1.8896"
       ry="0.039999999"
       fill="currentColor"
       id="rect899" />
  </g>
  <a
     style="color:inherit"
     xlink:href="textedit:///home/potatochup/musicforwesties/music_source/so_young.ly:14:2:3"
     id="a907"
     transform="translate(-2.4151818,-3.8453125)">
    <g
       transform="translate(27.539,8.3377)"
       id="g905">
      <path
         transform="scale(0.004,-0.004)"
         d="m 163,36 119,97 c 3,2 6,3 9,3 3,0 7,-1 10,-3 l 20,-16 c 3,-3 5,-8 5,-12 0,-4 -2,-9 -5,-12 L 206,0 321,-93 c 3,-3 5,-8 5,-12 0,-4 -2,-9 -5,-12 l -20,-16 c -3,-2 -7,-3 -10,-3 -3,0 -6,1 -9,3 L 163,-36 44,-133 c -3,-2 -6,-3 -9,-3 -3,0 -7,1 -10,3 l -20,16 c -3,3 -5,8 -5,12 0,4 2,9 5,12 L 120,0 5,93 c -3,3 -5,8 -5,12 0,4 2,9 5,12 l 20,16 c 3,2 7,3 10,3 3,0 6,-1 9,-3 z"
         fill="currentColor"
         id="path903" />
    </g>
  </a>
  <a
     style="color:inherit"
     xlink:href="textedit:///home/potatochup/musicforwesties/music_source/so_young.ly:14:4:5"
     id="a915"
     transform="translate(-2.4151818,-3.8453125)">
    <g
       transform="translate(27.539,5.3)"
       id="g913">
      <text
         font-family="serif"
         font-size="1.96px"
         text-anchor="start"
         fill="currentColor"
         id="text911"><tspan
           id="tspan909">&amp;</tspan></text>
    </g>
  </a>
  <g
     transform="translate(22.684618,5.9923875)"
     id="g919">
    <rect
       x="-0.064999998"
       y="-0.31389999"
       width="0.13"
       height="3.3139"
       ry="0.039999999"
       fill="currentColor"
       id="rect917" />
  </g>
  <a
     style="color:inherit"
     xlink:href="textedit:///home/potatochup/musicforwesties/music_source/so_young.ly:12:2:3"
     id="a925"
     transform="translate(-2.4151818,-3.8453125)">
    <g
       transform="translate(22.5306,8.3377)"
       id="g923">
      <path
         transform="scale(0.004,-0.004)"
         d="m 163,36 119,97 c 3,2 6,3 9,3 3,0 7,-1 10,-3 l 20,-16 c 3,-3 5,-8 5,-12 0,-4 -2,-9 -5,-12 L 206,0 321,-93 c 3,-3 5,-8 5,-12 0,-4 -2,-9 -5,-12 l -20,-16 c -3,-2 -7,-3 -10,-3 -3,0 -6,1 -9,3 L 163,-36 44,-133 c -3,-2 -6,-3 -9,-3 -3,0 -7,1 -10,3 l -20,16 c -3,3 -5,8 -5,12 0,4 2,9 5,12 L 120,0 5,93 c -3,3 -5,8 -5,12 0,4 2,9 5,12 l 20,16 c 3,2 7,3 10,3 3,0 6,-1 9,-3 z"
         fill="currentColor"
         id="path921" />
    </g>
  </a>
  <g
     transform="translate(23.858818,5.9923875)"
     id="g929">
    <rect
       x="-0.064999998"
       y="-3.8099999"
       width="0.13"
       height="1.8896"
       ry="0.039999999"
       fill="currentColor"
       id="rect927" />
  </g>
  <a
     style="color:inherit"
     xlink:href="textedit:///home/potatochup/musicforwesties/music_source/so_young.ly:21:12:13"
     id="a935"
     transform="translate(-2.4151818,-3.8453125)">
    <g
       transform="translate(25.0348,9.3377)"
       id="g933">
      <path
         transform="scale(0.004,-0.004)"
         d="m 218,136 c 55,0 108,-28 108,-89 0,-71 -55,-121 -102,-149 -35,-21 -75,-34 -116,-34 -55,0 -108,28 -108,89 0,71 55,121 102,149 35,21 75,34 116,34 z"
         fill="currentColor"
         id="path931" />
    </g>
  </a>
  <a
     style="color:inherit"
     xlink:href="textedit:///home/potatochup/musicforwesties/music_source/so_young.ly:13:2:3"
     id="a941"
     transform="translate(-2.4151818,-3.8453125)">
    <g
       transform="translate(25.0348,8.3377)"
       id="g939">
      <path
         transform="scale(0.004,-0.004)"
         d="m 163,36 119,97 c 3,2 6,3 9,3 3,0 7,-1 10,-3 l 20,-16 c 3,-3 5,-8 5,-12 0,-4 -2,-9 -5,-12 L 206,0 321,-93 c 3,-3 5,-8 5,-12 0,-4 -2,-9 -5,-12 l -20,-16 c -3,-2 -7,-3 -10,-3 -3,0 -6,1 -9,3 L 163,-36 44,-133 c -3,-2 -6,-3 -9,-3 -3,0 -7,1 -10,3 l -20,16 c -3,3 -5,8 -5,12 0,4 2,9 5,12 L 120,0 5,93 c -3,3 -5,8 -5,12 0,4 2,9 5,12 l 20,16 c 3,2 7,3 10,3 3,0 6,-1 9,-3 z"
         fill="currentColor"
         id="path937" />
    </g>
  </a>
  <a
     style="color:inherit"
     xlink:href="textedit:///home/potatochup/musicforwesties/music_source/so_young.ly:13:4:5"
     id="a949"
     transform="translate(-2.4151818,-3.8453125)">
    <g
       transform="translate(25.0348,5.3277)"
       id="g947">
      <text
         font-family="serif"
         font-size="1.96px"
         text-anchor="start"
         fill="currentColor"
         id="text945"><tspan
           id="tspan943">2</tspan></text>
    </g>
  </a>
  <g
     transform="translate(21.354618,5.9923875)"
     id="g953">
    <rect
       x="-0.064999998"
       y="-3.8099999"
       width="0.13"
       height="1.8896"
       ry="0.039999999"
       fill="currentColor"
       id="rect951" />
  </g>
</svg>
